<mxfile host="app.diagrams.net" modified="2023-03-28T16:24:58.979Z" agent="Mozilla/5.0 (Macintosh; Intel Mac OS X 10_15_7) AppleWebKit/537.36 (KHTML, like Gecko) Chrome/110.0.0.0 Safari/537.36 OPR/96.0.0.0" etag="KpKFSoMqN0qBpJojgu0o" version="21.1.1" type="github">
  <diagram id="TLU8fEAyNQ-OhAnARifZ" name="Страница 1">
    <mxGraphModel dx="3651" dy="4573" grid="1" gridSize="10" guides="1" tooltips="1" connect="1" arrows="1" fold="1" page="1" pageScale="1" pageWidth="827" pageHeight="1169" math="0" shadow="0">
      <root>
        <mxCell id="0" />
        <mxCell id="1" parent="0" />
        <mxCell id="8wIIhX6IMqMjJVi14Pui-17" value="Варианты архитектуры автотестов " style="html=1;overflow=block;blockSpacing=1;whiteSpace=wrap;fontSize=16.7;fontColor=#3a414a;align=center;spacing=3.8;verticalAlign=bottom;strokeColor=#3a414a;strokeOpacity=100;fillOpacity=100;rounded=1;absoluteArcSize=1;arcSize=9;fillColor=#e3fae3;strokeWidth=0.8;lucidId=EsIHXwLGTbCT;" parent="1" vertex="1">
          <mxGeometry x="380" y="-1000" width="2560" height="1300" as="geometry" />
        </mxCell>
        <mxCell id="8wIIhX6IMqMjJVi14Pui-18" value="Второй" style="html=1;overflow=block;blockSpacing=1;whiteSpace=wrap;fontSize=16.7;fontColor=#3a414a;spacing=3.8;verticalAlign=bottom;strokeColor=#3a414a;strokeOpacity=100;fillOpacity=100;rounded=1;absoluteArcSize=1;arcSize=9;fillColor=#fff0fb;strokeWidth=0.8;lucidId=LwIHB8IIKaVe;" parent="1" vertex="1">
          <mxGeometry x="1640" y="-970" width="1100" height="890" as="geometry" />
        </mxCell>
        <mxCell id="8wIIhX6IMqMjJVi14Pui-19" value="Описать фичи и в тестах вызывать метод фич" style="html=1;overflow=block;blockSpacing=1;whiteSpace=wrap;fontSize=16.7;fontColor=#3a414a;spacing=3.8;verticalAlign=bottom;strokeColor=#3a414a;strokeOpacity=100;fillOpacity=100;rounded=1;absoluteArcSize=1;arcSize=9;fillColor=#fff0fb;strokeWidth=0.8;lucidId=cxIHeIzAgjHD;" parent="1" vertex="1">
          <mxGeometry x="410" y="-970" width="1185" height="890" as="geometry" />
        </mxCell>
        <mxCell id="8wIIhX6IMqMjJVi14Pui-42" style="rounded=0;orthogonalLoop=1;jettySize=auto;html=1;exitX=0.25;exitY=1;exitDx=0;exitDy=0;entryX=0.5;entryY=0;entryDx=0;entryDy=0;" parent="1" source="8wIIhX6IMqMjJVi14Pui-21" target="8wIIhX6IMqMjJVi14Pui-24" edge="1">
          <mxGeometry relative="1" as="geometry" />
        </mxCell>
        <mxCell id="8wIIhX6IMqMjJVi14Pui-43" style="rounded=0;orthogonalLoop=1;jettySize=auto;html=1;exitX=0.5;exitY=1;exitDx=0;exitDy=0;entryX=0.5;entryY=0;entryDx=0;entryDy=0;" parent="1" source="8wIIhX6IMqMjJVi14Pui-21" target="8wIIhX6IMqMjJVi14Pui-25" edge="1">
          <mxGeometry relative="1" as="geometry" />
        </mxCell>
        <mxCell id="8wIIhX6IMqMjJVi14Pui-44" style="rounded=0;orthogonalLoop=1;jettySize=auto;html=1;exitX=0.75;exitY=1;exitDx=0;exitDy=0;entryX=0.5;entryY=0;entryDx=0;entryDy=0;" parent="1" source="8wIIhX6IMqMjJVi14Pui-21" target="8wIIhX6IMqMjJVi14Pui-26" edge="1">
          <mxGeometry relative="1" as="geometry" />
        </mxCell>
        <mxCell id="8wIIhX6IMqMjJVi14Pui-21" value="Класс с методами API" style="html=1;overflow=block;blockSpacing=1;whiteSpace=wrap;fontSize=16.7;fontColor=#3a414a;spacing=3.8;strokeColor=#3a414a;strokeOpacity=100;rounded=1;absoluteArcSize=1;arcSize=9;strokeWidth=0.8;lucidId=3xIHyjGCG~Ac;" parent="1" vertex="1">
          <mxGeometry x="425" y="-880" width="345" height="90" as="geometry" />
        </mxCell>
        <mxCell id="8wIIhX6IMqMjJVi14Pui-36" style="rounded=0;orthogonalLoop=1;jettySize=auto;html=1;exitX=0.25;exitY=1;exitDx=0;exitDy=0;entryX=0.5;entryY=0;entryDx=0;entryDy=0;" parent="1" source="8wIIhX6IMqMjJVi14Pui-22" target="8wIIhX6IMqMjJVi14Pui-33" edge="1">
          <mxGeometry relative="1" as="geometry" />
        </mxCell>
        <mxCell id="8wIIhX6IMqMjJVi14Pui-37" style="rounded=0;orthogonalLoop=1;jettySize=auto;html=1;exitX=0.5;exitY=1;exitDx=0;exitDy=0;entryX=0.5;entryY=0;entryDx=0;entryDy=0;" parent="1" source="8wIIhX6IMqMjJVi14Pui-22" target="8wIIhX6IMqMjJVi14Pui-34" edge="1">
          <mxGeometry relative="1" as="geometry" />
        </mxCell>
        <mxCell id="8wIIhX6IMqMjJVi14Pui-38" style="rounded=0;orthogonalLoop=1;jettySize=auto;html=1;exitX=0.75;exitY=1;exitDx=0;exitDy=0;entryX=0.5;entryY=0;entryDx=0;entryDy=0;" parent="1" source="8wIIhX6IMqMjJVi14Pui-22" target="8wIIhX6IMqMjJVi14Pui-35" edge="1">
          <mxGeometry relative="1" as="geometry" />
        </mxCell>
        <mxCell id="8wIIhX6IMqMjJVi14Pui-22" value="Класс с методами Продукта" style="html=1;overflow=block;blockSpacing=1;whiteSpace=wrap;fontSize=16.7;fontColor=#3a414a;spacing=3.8;strokeColor=#3a414a;strokeOpacity=100;rounded=1;absoluteArcSize=1;arcSize=9;strokeWidth=0.8;lucidId=4xIH1OhttLX0;" parent="1" vertex="1">
          <mxGeometry x="1299" y="-880" width="255" height="90" as="geometry" />
        </mxCell>
        <mxCell id="8wIIhX6IMqMjJVi14Pui-39" style="rounded=0;orthogonalLoop=1;jettySize=auto;html=1;exitX=0.5;exitY=1;exitDx=0;exitDy=0;entryX=0.5;entryY=0;entryDx=0;entryDy=0;" parent="1" source="8wIIhX6IMqMjJVi14Pui-23" target="8wIIhX6IMqMjJVi14Pui-31" edge="1">
          <mxGeometry relative="1" as="geometry" />
        </mxCell>
        <mxCell id="8wIIhX6IMqMjJVi14Pui-40" style="rounded=0;orthogonalLoop=1;jettySize=auto;html=1;exitX=0.25;exitY=1;exitDx=0;exitDy=0;entryX=0.5;entryY=0;entryDx=0;entryDy=0;" parent="1" source="8wIIhX6IMqMjJVi14Pui-23" target="8wIIhX6IMqMjJVi14Pui-30" edge="1">
          <mxGeometry relative="1" as="geometry" />
        </mxCell>
        <mxCell id="8wIIhX6IMqMjJVi14Pui-41" style="rounded=0;orthogonalLoop=1;jettySize=auto;html=1;exitX=0.75;exitY=1;exitDx=0;exitDy=0;entryX=0.5;entryY=0;entryDx=0;entryDy=0;" parent="1" source="8wIIhX6IMqMjJVi14Pui-23" target="8wIIhX6IMqMjJVi14Pui-32" edge="1">
          <mxGeometry relative="1" as="geometry" />
        </mxCell>
        <mxCell id="8wIIhX6IMqMjJVi14Pui-23" value="Класс с методами Подписки" style="html=1;overflow=block;blockSpacing=1;whiteSpace=wrap;fontSize=16.7;fontColor=#3a414a;spacing=3.8;strokeColor=#3a414a;strokeOpacity=100;rounded=1;absoluteArcSize=1;arcSize=9;strokeWidth=0.8;lucidId=4xIHA9AZ2qI-;" parent="1" vertex="1">
          <mxGeometry x="845" y="-880" width="360" height="90" as="geometry" />
        </mxCell>
        <mxCell id="8wIIhX6IMqMjJVi14Pui-112" style="rounded=0;orthogonalLoop=1;jettySize=auto;html=1;exitX=0.5;exitY=1;exitDx=0;exitDy=0;entryX=0.5;entryY=0;entryDx=0;entryDy=0;" parent="1" source="8wIIhX6IMqMjJVi14Pui-24" target="8wIIhX6IMqMjJVi14Pui-110" edge="1">
          <mxGeometry relative="1" as="geometry" />
        </mxCell>
        <mxCell id="8wIIhX6IMqMjJVi14Pui-24" value="Опубликовать API" style="html=1;overflow=block;blockSpacing=1;whiteSpace=wrap;fontSize=16.7;fontColor=#3a414a;spacing=3.8;strokeColor=#3a414a;strokeOpacity=100;rounded=1;absoluteArcSize=1;arcSize=9;strokeWidth=0.8;lucidId=4xIH_oDmScev;fillColor=#CCFFFF;" parent="1" vertex="1">
          <mxGeometry x="425" y="-745" width="120" height="60" as="geometry" />
        </mxCell>
        <mxCell id="8wIIhX6IMqMjJVi14Pui-25" value="..." style="html=1;overflow=block;blockSpacing=1;whiteSpace=wrap;fontSize=16.7;fontColor=#3a414a;spacing=3.8;strokeColor=#3a414a;strokeOpacity=100;rounded=1;absoluteArcSize=1;arcSize=9;strokeWidth=0.8;lucidId=1zIH8hw5p2Yf;" parent="1" vertex="1">
          <mxGeometry x="560" y="-745" width="105" height="60" as="geometry" />
        </mxCell>
        <mxCell id="8wIIhX6IMqMjJVi14Pui-113" style="rounded=0;orthogonalLoop=1;jettySize=auto;html=1;exitX=0.5;exitY=1;exitDx=0;exitDy=0;entryX=0.5;entryY=0;entryDx=0;entryDy=0;" parent="1" source="8wIIhX6IMqMjJVi14Pui-26" target="8wIIhX6IMqMjJVi14Pui-111" edge="1">
          <mxGeometry relative="1" as="geometry" />
        </mxCell>
        <mxCell id="8wIIhX6IMqMjJVi14Pui-26" value="Удалить API" style="html=1;overflow=block;blockSpacing=1;whiteSpace=wrap;fontSize=16.7;fontColor=#3a414a;spacing=3.8;strokeColor=#3a414a;strokeOpacity=100;rounded=1;absoluteArcSize=1;arcSize=9;strokeWidth=0.8;lucidId=9zIHSOUeYpuy;fillColor=#CCFFE6;" parent="1" vertex="1">
          <mxGeometry x="680" y="-745" width="105" height="60" as="geometry" />
        </mxCell>
        <mxCell id="8wIIhX6IMqMjJVi14Pui-30" value="Подписаться на API" style="html=1;overflow=block;blockSpacing=1;whiteSpace=wrap;fontSize=16.7;fontColor=#3a414a;spacing=3.8;strokeColor=#3a414a;strokeOpacity=100;rounded=1;absoluteArcSize=1;arcSize=9;strokeWidth=0.8;lucidId=nBIH9-Dhv~0N;" parent="1" vertex="1">
          <mxGeometry x="845" y="-745" width="120" height="60" as="geometry" />
        </mxCell>
        <mxCell id="8wIIhX6IMqMjJVi14Pui-31" value="..." style="html=1;overflow=block;blockSpacing=1;whiteSpace=wrap;fontSize=16.7;fontColor=#3a414a;spacing=3.8;strokeColor=#3a414a;strokeOpacity=100;rounded=1;absoluteArcSize=1;arcSize=9;strokeWidth=0.8;lucidId=nBIHJ4VkVPO5;" parent="1" vertex="1">
          <mxGeometry x="980" y="-745" width="105" height="60" as="geometry" />
        </mxCell>
        <mxCell id="8wIIhX6IMqMjJVi14Pui-32" value="Удалить" style="html=1;overflow=block;blockSpacing=1;whiteSpace=wrap;fontSize=16.7;fontColor=#3a414a;spacing=3.8;strokeColor=#3a414a;strokeOpacity=100;rounded=1;absoluteArcSize=1;arcSize=9;strokeWidth=0.8;lucidId=nBIHgmyOyOGm;" parent="1" vertex="1">
          <mxGeometry x="1100" y="-745" width="105" height="60" as="geometry" />
        </mxCell>
        <mxCell id="8wIIhX6IMqMjJVi14Pui-33" value="Подписаться на API" style="html=1;overflow=block;blockSpacing=1;whiteSpace=wrap;fontSize=16.7;fontColor=#3a414a;spacing=3.8;strokeColor=#3a414a;strokeOpacity=100;rounded=1;absoluteArcSize=1;arcSize=9;strokeWidth=0.8;lucidId=nBIH9-Dhv~0N;" parent="1" vertex="1">
          <mxGeometry x="1230" y="-745" width="120" height="60" as="geometry" />
        </mxCell>
        <mxCell id="8wIIhX6IMqMjJVi14Pui-34" value="..." style="html=1;overflow=block;blockSpacing=1;whiteSpace=wrap;fontSize=16.7;fontColor=#3a414a;spacing=3.8;strokeColor=#3a414a;strokeOpacity=100;rounded=1;absoluteArcSize=1;arcSize=9;strokeWidth=0.8;lucidId=nBIHJ4VkVPO5;" parent="1" vertex="1">
          <mxGeometry x="1365" y="-745" width="105" height="60" as="geometry" />
        </mxCell>
        <mxCell id="8wIIhX6IMqMjJVi14Pui-35" value="Удалить" style="html=1;overflow=block;blockSpacing=1;whiteSpace=wrap;fontSize=16.7;fontColor=#3a414a;spacing=3.8;strokeColor=#3a414a;strokeOpacity=100;rounded=1;absoluteArcSize=1;arcSize=9;strokeWidth=0.8;lucidId=nBIHgmyOyOGm;" parent="1" vertex="1">
          <mxGeometry x="1485" y="-745" width="105" height="60" as="geometry" />
        </mxCell>
        <mxCell id="8wIIhX6IMqMjJVi14Pui-50" style="edgeStyle=orthogonalEdgeStyle;rounded=0;orthogonalLoop=1;jettySize=auto;html=1;exitX=0;exitY=0.5;exitDx=0;exitDy=0;entryX=0;entryY=0.5;entryDx=0;entryDy=0;" parent="1" source="8wIIhX6IMqMjJVi14Pui-47" target="8wIIhX6IMqMjJVi14Pui-48" edge="1">
          <mxGeometry relative="1" as="geometry" />
        </mxCell>
        <mxCell id="8wIIhX6IMqMjJVi14Pui-52" style="edgeStyle=orthogonalEdgeStyle;rounded=0;orthogonalLoop=1;jettySize=auto;html=1;exitX=0;exitY=0.5;exitDx=0;exitDy=0;entryX=0;entryY=0.5;entryDx=0;entryDy=0;" parent="1" source="8wIIhX6IMqMjJVi14Pui-47" target="8wIIhX6IMqMjJVi14Pui-51" edge="1">
          <mxGeometry relative="1" as="geometry" />
        </mxCell>
        <mxCell id="8wIIhX6IMqMjJVi14Pui-47" value="тест1:" style="html=1;overflow=block;blockSpacing=1;whiteSpace=wrap;fontSize=16.7;fontColor=#3a414a;spacing=3.8;strokeColor=#3a414a;strokeOpacity=100;rounded=1;absoluteArcSize=1;arcSize=9;strokeWidth=0.8;lucidId=1zIH8hw5p2Yf;" parent="1" vertex="1">
          <mxGeometry x="440" y="-420" width="105" height="50" as="geometry" />
        </mxCell>
        <mxCell id="8wIIhX6IMqMjJVi14Pui-48" value="Опубликовать API" style="html=1;overflow=block;blockSpacing=1;whiteSpace=wrap;fontSize=16.7;fontColor=#3a414a;spacing=3.8;strokeColor=#3a414a;strokeOpacity=100;rounded=1;absoluteArcSize=1;arcSize=9;strokeWidth=0.8;lucidId=4xIH_oDmScev;fillColor=#CCFFFF;" parent="1" vertex="1">
          <mxGeometry x="440" y="-340" width="190" height="50" as="geometry" />
        </mxCell>
        <mxCell id="8wIIhX6IMqMjJVi14Pui-51" value="Удалить API" style="html=1;overflow=block;blockSpacing=1;whiteSpace=wrap;fontSize=16.7;fontColor=#3a414a;spacing=3.8;strokeColor=#3a414a;strokeOpacity=100;rounded=1;absoluteArcSize=1;arcSize=9;strokeWidth=0.8;lucidId=4xIH_oDmScev;fillColor=#CCFFE6;" parent="1" vertex="1">
          <mxGeometry x="440" y="-280" width="190" height="50" as="geometry" />
        </mxCell>
        <mxCell id="8wIIhX6IMqMjJVi14Pui-60" style="edgeStyle=orthogonalEdgeStyle;rounded=0;orthogonalLoop=1;jettySize=auto;html=1;exitX=0;exitY=0.5;exitDx=0;exitDy=0;entryX=0;entryY=0.5;entryDx=0;entryDy=0;" parent="1" source="8wIIhX6IMqMjJVi14Pui-53" target="8wIIhX6IMqMjJVi14Pui-58" edge="1">
          <mxGeometry relative="1" as="geometry" />
        </mxCell>
        <mxCell id="8wIIhX6IMqMjJVi14Pui-61" style="edgeStyle=orthogonalEdgeStyle;rounded=0;orthogonalLoop=1;jettySize=auto;html=1;exitX=0;exitY=0.5;exitDx=0;exitDy=0;entryX=0;entryY=0.5;entryDx=0;entryDy=0;" parent="1" source="8wIIhX6IMqMjJVi14Pui-53" target="8wIIhX6IMqMjJVi14Pui-55" edge="1">
          <mxGeometry relative="1" as="geometry" />
        </mxCell>
        <mxCell id="8wIIhX6IMqMjJVi14Pui-74" style="edgeStyle=orthogonalEdgeStyle;rounded=0;orthogonalLoop=1;jettySize=auto;html=1;exitX=0;exitY=0.5;exitDx=0;exitDy=0;entryX=0;entryY=0.5;entryDx=0;entryDy=0;" parent="1" source="8wIIhX6IMqMjJVi14Pui-53" target="8wIIhX6IMqMjJVi14Pui-73" edge="1">
          <mxGeometry relative="1" as="geometry" />
        </mxCell>
        <mxCell id="8wIIhX6IMqMjJVi14Pui-53" value="тест2:" style="html=1;overflow=block;blockSpacing=1;whiteSpace=wrap;fontSize=16.7;fontColor=#3a414a;spacing=3.8;strokeColor=#3a414a;strokeOpacity=100;rounded=1;absoluteArcSize=1;arcSize=9;strokeWidth=0.8;lucidId=1zIH8hw5p2Yf;" parent="1" vertex="1">
          <mxGeometry x="700" y="-420" width="105" height="50" as="geometry" />
        </mxCell>
        <mxCell id="8wIIhX6IMqMjJVi14Pui-55" value="Удалить API" style="html=1;overflow=block;blockSpacing=1;whiteSpace=wrap;fontSize=16.7;fontColor=#3a414a;spacing=3.8;strokeColor=#3a414a;strokeOpacity=100;rounded=1;absoluteArcSize=1;arcSize=9;strokeWidth=0.8;lucidId=4xIH_oDmScev;fillColor=#CCFFE6;" parent="1" vertex="1">
          <mxGeometry x="700" y="-220" width="200" height="50" as="geometry" />
        </mxCell>
        <mxCell id="8wIIhX6IMqMjJVi14Pui-58" value="Редактировать API" style="html=1;overflow=block;blockSpacing=1;whiteSpace=wrap;fontSize=16.7;fontColor=#3a414a;spacing=3.8;strokeColor=#3a414a;strokeOpacity=100;rounded=1;absoluteArcSize=1;arcSize=9;strokeWidth=0.8;lucidId=1zIH8hw5p2Yf;" parent="1" vertex="1">
          <mxGeometry x="700" y="-280" width="200" height="50" as="geometry" />
        </mxCell>
        <mxCell id="8wIIhX6IMqMjJVi14Pui-72" style="edgeStyle=orthogonalEdgeStyle;rounded=0;orthogonalLoop=1;jettySize=auto;html=1;exitX=0;exitY=0.5;exitDx=0;exitDy=0;entryX=0;entryY=0.5;entryDx=0;entryDy=0;" parent="1" source="8wIIhX6IMqMjJVi14Pui-67" target="8wIIhX6IMqMjJVi14Pui-68" edge="1">
          <mxGeometry relative="1" as="geometry" />
        </mxCell>
        <mxCell id="8wIIhX6IMqMjJVi14Pui-67" value="Фикстура Опубликовать API:" style="html=1;overflow=block;blockSpacing=1;whiteSpace=wrap;fontSize=16.7;fontColor=#3a414a;spacing=3.8;strokeColor=#3a414a;strokeOpacity=100;rounded=1;absoluteArcSize=1;arcSize=9;strokeWidth=0.8;lucidId=1zIH8hw5p2Yf;fillColor=#CCFFCC;" parent="1" vertex="1">
          <mxGeometry x="1040" y="-420" width="200" height="50" as="geometry" />
        </mxCell>
        <mxCell id="8wIIhX6IMqMjJVi14Pui-68" value="Опубликовать API" style="html=1;overflow=block;blockSpacing=1;whiteSpace=wrap;fontSize=16.7;fontColor=#3a414a;spacing=3.8;strokeColor=#3a414a;strokeOpacity=100;rounded=1;absoluteArcSize=1;arcSize=9;strokeWidth=0.8;lucidId=4xIH_oDmScev;fillColor=#CCFFFF;" parent="1" vertex="1">
          <mxGeometry x="1065" y="-350" width="200" height="50" as="geometry" />
        </mxCell>
        <mxCell id="8wIIhX6IMqMjJVi14Pui-73" value="Фикстура Опубликовать API" style="html=1;overflow=block;blockSpacing=1;whiteSpace=wrap;fontSize=16.7;fontColor=#3a414a;spacing=3.8;strokeColor=#3a414a;strokeOpacity=100;rounded=1;absoluteArcSize=1;arcSize=9;strokeWidth=0.8;lucidId=1zIH8hw5p2Yf;fillColor=#CCFFCC;" parent="1" vertex="1">
          <mxGeometry x="700" y="-350" width="200" height="50" as="geometry" />
        </mxCell>
        <mxCell id="8wIIhX6IMqMjJVi14Pui-106" style="edgeStyle=orthogonalEdgeStyle;rounded=0;orthogonalLoop=1;jettySize=auto;html=1;exitX=0;exitY=0.5;exitDx=0;exitDy=0;entryX=0;entryY=0.5;entryDx=0;entryDy=0;" parent="1" source="8wIIhX6IMqMjJVi14Pui-75" target="8wIIhX6IMqMjJVi14Pui-76" edge="1">
          <mxGeometry relative="1" as="geometry" />
        </mxCell>
        <mxCell id="8wIIhX6IMqMjJVi14Pui-107" style="edgeStyle=orthogonalEdgeStyle;rounded=0;orthogonalLoop=1;jettySize=auto;html=1;exitX=0;exitY=0.5;exitDx=0;exitDy=0;entryX=0;entryY=0.5;entryDx=0;entryDy=0;" parent="1" source="8wIIhX6IMqMjJVi14Pui-75" target="8wIIhX6IMqMjJVi14Pui-77" edge="1">
          <mxGeometry relative="1" as="geometry" />
        </mxCell>
        <mxCell id="8wIIhX6IMqMjJVi14Pui-75" value="Фикстура создать API с подпиской:" style="html=1;overflow=block;blockSpacing=1;whiteSpace=wrap;fontSize=16.7;fontColor=#3a414a;spacing=3.8;strokeColor=#3a414a;strokeOpacity=100;rounded=1;absoluteArcSize=1;arcSize=9;strokeWidth=0.8;lucidId=1zIH8hw5p2Yf;fillColor=#FFFFFF;" parent="1" vertex="1">
          <mxGeometry x="1060" y="-280" width="200" height="50" as="geometry" />
        </mxCell>
        <mxCell id="8wIIhX6IMqMjJVi14Pui-76" value="Опубликовать API" style="html=1;overflow=block;blockSpacing=1;whiteSpace=wrap;fontSize=16.7;fontColor=#3a414a;spacing=3.8;strokeColor=#3a414a;strokeOpacity=100;rounded=1;absoluteArcSize=1;arcSize=9;strokeWidth=0.8;lucidId=4xIH_oDmScev;fillColor=#CCFFFF;" parent="1" vertex="1">
          <mxGeometry x="1090" y="-220" width="200" height="50" as="geometry" />
        </mxCell>
        <mxCell id="8wIIhX6IMqMjJVi14Pui-77" value="Подписаться на API" style="html=1;overflow=block;blockSpacing=1;whiteSpace=wrap;fontSize=16.7;fontColor=#3a414a;spacing=3.8;strokeColor=#3a414a;strokeOpacity=100;rounded=1;absoluteArcSize=1;arcSize=9;strokeWidth=0.8;lucidId=4xIH_oDmScev;fillColor=#FFFFFF;" parent="1" vertex="1">
          <mxGeometry x="1090" y="-170" width="200" height="50" as="geometry" />
        </mxCell>
        <mxCell id="8wIIhX6IMqMjJVi14Pui-78" value="&lt;font style=&quot;font-size: 18px;&quot;&gt;&#39; + &#39; этого подхода:&amp;nbsp;&lt;br&gt;&amp;nbsp;- нет дублирования запросов в тестах и фикстурах&lt;br&gt;&lt;div style=&quot;&quot;&gt;&lt;span style=&quot;background-color: initial;&quot;&gt;&amp;nbsp;- если поменяется к примеру запрос на публикацию API&amp;nbsp; надо будет изменить только в&amp;nbsp; routes путь или добавить убрать хэдеры или поменть body&lt;br&gt;- body лежит в одном месте - т.е. если переходим с pydantic на что-то еще то поменять создание body только в одном месте а не во всех тестах&lt;br&gt;&lt;br&gt;&#39; - &#39; этого подхода:&lt;br&gt;- появляется новая сущность - методы фич = больше кода&lt;br&gt;- усложнение кода&lt;br&gt;- не слишком большой выигрыш в ликвидации дублирования запросов&lt;br&gt;- количество тестов будет равно количеству методов фич = лишний код на тесты&lt;/span&gt;&lt;/div&gt;&lt;/font&gt;" style="text;html=1;strokeColor=none;fillColor=none;align=left;verticalAlign=middle;whiteSpace=wrap;rounded=0;" parent="1" vertex="1">
          <mxGeometry x="460" y="-55" width="730" height="260" as="geometry" />
        </mxCell>
        <mxCell id="8wIIhX6IMqMjJVi14Pui-79" value="Тесты" style="html=1;overflow=block;blockSpacing=1;whiteSpace=wrap;fontSize=16.7;fontColor=#3a414a;spacing=3.8;strokeColor=#3a414a;strokeOpacity=100;rounded=1;absoluteArcSize=1;arcSize=9;strokeWidth=0.8;lucidId=WxIH~Xk1~OES;" parent="1" vertex="1">
          <mxGeometry x="1650" y="-520" width="480" height="64" as="geometry" />
        </mxCell>
        <mxCell id="8wIIhX6IMqMjJVi14Pui-80" value="Фикстуры" style="html=1;overflow=block;blockSpacing=1;whiteSpace=wrap;fontSize=16.7;fontColor=#3a414a;spacing=3.8;strokeColor=#3a414a;strokeOpacity=100;rounded=1;absoluteArcSize=1;arcSize=9;strokeWidth=0.8;lucidId=WxIH~Xk1~OES;" parent="1" vertex="1">
          <mxGeometry x="2190" y="-520" width="500" height="64" as="geometry" />
        </mxCell>
        <mxCell id="8wIIhX6IMqMjJVi14Pui-84" style="edgeStyle=orthogonalEdgeStyle;rounded=0;orthogonalLoop=1;jettySize=auto;html=1;exitX=0;exitY=0.5;exitDx=0;exitDy=0;entryX=0;entryY=0.5;entryDx=0;entryDy=0;" parent="1" source="8wIIhX6IMqMjJVi14Pui-81" target="8wIIhX6IMqMjJVi14Pui-82" edge="1">
          <mxGeometry relative="1" as="geometry" />
        </mxCell>
        <mxCell id="8wIIhX6IMqMjJVi14Pui-85" style="edgeStyle=orthogonalEdgeStyle;rounded=0;orthogonalLoop=1;jettySize=auto;html=1;exitX=0;exitY=0.5;exitDx=0;exitDy=0;entryX=0;entryY=0.5;entryDx=0;entryDy=0;" parent="1" source="8wIIhX6IMqMjJVi14Pui-81" target="8wIIhX6IMqMjJVi14Pui-83" edge="1">
          <mxGeometry relative="1" as="geometry" />
        </mxCell>
        <mxCell id="8wIIhX6IMqMjJVi14Pui-81" value="тест1:" style="html=1;overflow=block;blockSpacing=1;whiteSpace=wrap;fontSize=16.7;fontColor=#3a414a;spacing=3.8;strokeColor=#3a414a;strokeOpacity=100;rounded=1;absoluteArcSize=1;arcSize=9;strokeWidth=0.8;lucidId=1zIH8hw5p2Yf;" parent="1" vertex="1">
          <mxGeometry x="1670" y="-420" width="105" height="50" as="geometry" />
        </mxCell>
        <mxCell id="8wIIhX6IMqMjJVi14Pui-82" value="Post запрос на Опубликовать API" style="html=1;overflow=block;blockSpacing=1;whiteSpace=wrap;fontSize=16.7;fontColor=#3a414a;spacing=3.8;strokeColor=#3a414a;strokeOpacity=100;rounded=1;absoluteArcSize=1;arcSize=9;strokeWidth=0.8;lucidId=4xIH_oDmScev;fillColor=#FFFFFF;" parent="1" vertex="1">
          <mxGeometry x="1670" y="-340" width="190" height="50" as="geometry" />
        </mxCell>
        <mxCell id="8wIIhX6IMqMjJVi14Pui-83" value="запрос на Удалить API" style="html=1;overflow=block;blockSpacing=1;whiteSpace=wrap;fontSize=16.7;fontColor=#3a414a;spacing=3.8;strokeColor=#3a414a;strokeOpacity=100;rounded=1;absoluteArcSize=1;arcSize=9;strokeWidth=0.8;lucidId=4xIH_oDmScev;fillColor=#FFFFFF;" parent="1" vertex="1">
          <mxGeometry x="1670" y="-280" width="190" height="50" as="geometry" />
        </mxCell>
        <mxCell id="8wIIhX6IMqMjJVi14Pui-91" style="edgeStyle=orthogonalEdgeStyle;rounded=0;orthogonalLoop=1;jettySize=auto;html=1;exitX=0;exitY=0.5;exitDx=0;exitDy=0;entryX=0;entryY=0.5;entryDx=0;entryDy=0;" parent="1" source="8wIIhX6IMqMjJVi14Pui-86" target="8wIIhX6IMqMjJVi14Pui-87" edge="1">
          <mxGeometry relative="1" as="geometry" />
        </mxCell>
        <mxCell id="8wIIhX6IMqMjJVi14Pui-86" value="Фикстура Опубликовать API:" style="html=1;overflow=block;blockSpacing=1;whiteSpace=wrap;fontSize=16.7;fontColor=#3a414a;spacing=3.8;strokeColor=#3a414a;strokeOpacity=100;rounded=1;absoluteArcSize=1;arcSize=9;strokeWidth=0.8;lucidId=1zIH8hw5p2Yf;fillColor=#FFCCE6;" parent="1" vertex="1">
          <mxGeometry x="2227.5" y="-420" width="200" height="50" as="geometry" />
        </mxCell>
        <mxCell id="8wIIhX6IMqMjJVi14Pui-87" value="Post запрос на Опубликовать API" style="html=1;overflow=block;blockSpacing=1;whiteSpace=wrap;fontSize=16.7;fontColor=#3a414a;spacing=3.8;strokeColor=#3a414a;strokeOpacity=100;rounded=1;absoluteArcSize=1;arcSize=9;strokeWidth=0.8;lucidId=4xIH_oDmScev;fillColor=#CCFFFF;" parent="1" vertex="1">
          <mxGeometry x="2252.5" y="-350" width="200" height="50" as="geometry" />
        </mxCell>
        <mxCell id="8wIIhX6IMqMjJVi14Pui-97" style="edgeStyle=orthogonalEdgeStyle;rounded=0;orthogonalLoop=1;jettySize=auto;html=1;exitX=0;exitY=0.5;exitDx=0;exitDy=0;entryX=0;entryY=0.5;entryDx=0;entryDy=0;" parent="1" source="8wIIhX6IMqMjJVi14Pui-88" target="8wIIhX6IMqMjJVi14Pui-89" edge="1">
          <mxGeometry relative="1" as="geometry" />
        </mxCell>
        <mxCell id="8wIIhX6IMqMjJVi14Pui-98" style="edgeStyle=orthogonalEdgeStyle;rounded=0;orthogonalLoop=1;jettySize=auto;html=1;exitX=0;exitY=0.5;exitDx=0;exitDy=0;entryX=0;entryY=0.5;entryDx=0;entryDy=0;" parent="1" source="8wIIhX6IMqMjJVi14Pui-88" target="8wIIhX6IMqMjJVi14Pui-96" edge="1">
          <mxGeometry relative="1" as="geometry" />
        </mxCell>
        <mxCell id="8wIIhX6IMqMjJVi14Pui-99" style="edgeStyle=orthogonalEdgeStyle;rounded=0;orthogonalLoop=1;jettySize=auto;html=1;exitX=0;exitY=0.5;exitDx=0;exitDy=0;entryX=0;entryY=0.5;entryDx=0;entryDy=0;" parent="1" source="8wIIhX6IMqMjJVi14Pui-88" target="8wIIhX6IMqMjJVi14Pui-90" edge="1">
          <mxGeometry relative="1" as="geometry" />
        </mxCell>
        <mxCell id="8wIIhX6IMqMjJVi14Pui-88" value="тест2:" style="html=1;overflow=block;blockSpacing=1;whiteSpace=wrap;fontSize=16.7;fontColor=#3a414a;spacing=3.8;strokeColor=#3a414a;strokeOpacity=100;rounded=1;absoluteArcSize=1;arcSize=9;strokeWidth=0.8;lucidId=1zIH8hw5p2Yf;" parent="1" vertex="1">
          <mxGeometry x="1915" y="-420" width="105" height="50" as="geometry" />
        </mxCell>
        <mxCell id="8wIIhX6IMqMjJVi14Pui-89" value="Фикстура Опубликовать API" style="html=1;overflow=block;blockSpacing=1;whiteSpace=wrap;fontSize=16.7;fontColor=#3a414a;spacing=3.8;strokeColor=#3a414a;strokeOpacity=100;rounded=1;absoluteArcSize=1;arcSize=9;strokeWidth=0.8;lucidId=4xIH_oDmScev;fillColor=#FFCCE6;" parent="1" vertex="1">
          <mxGeometry x="1915" y="-350" width="190" height="50" as="geometry" />
        </mxCell>
        <mxCell id="8wIIhX6IMqMjJVi14Pui-90" value="&amp;nbsp;запрос на Удалить API" style="html=1;overflow=block;blockSpacing=1;whiteSpace=wrap;fontSize=16.7;fontColor=#3a414a;spacing=3.8;strokeColor=#3a414a;strokeOpacity=100;rounded=1;absoluteArcSize=1;arcSize=9;strokeWidth=0.8;lucidId=4xIH_oDmScev;fillColor=#FFFFFF;" parent="1" vertex="1">
          <mxGeometry x="1915" y="-220" width="190" height="50" as="geometry" />
        </mxCell>
        <mxCell id="8wIIhX6IMqMjJVi14Pui-94" style="edgeStyle=orthogonalEdgeStyle;rounded=0;orthogonalLoop=1;jettySize=auto;html=1;exitX=0;exitY=0.5;exitDx=0;exitDy=0;entryX=0;entryY=0.5;entryDx=0;entryDy=0;" parent="1" source="8wIIhX6IMqMjJVi14Pui-92" target="8wIIhX6IMqMjJVi14Pui-93" edge="1">
          <mxGeometry relative="1" as="geometry" />
        </mxCell>
        <mxCell id="8wIIhX6IMqMjJVi14Pui-100" style="edgeStyle=orthogonalEdgeStyle;rounded=0;orthogonalLoop=1;jettySize=auto;html=1;exitX=0;exitY=0.5;exitDx=0;exitDy=0;entryX=0;entryY=0.5;entryDx=0;entryDy=0;" parent="1" source="8wIIhX6IMqMjJVi14Pui-92" target="8wIIhX6IMqMjJVi14Pui-95" edge="1">
          <mxGeometry relative="1" as="geometry" />
        </mxCell>
        <mxCell id="8wIIhX6IMqMjJVi14Pui-92" value="Фикстура Опубликовать заблокированную API:" style="html=1;overflow=block;blockSpacing=1;whiteSpace=wrap;fontSize=16.7;fontColor=#3a414a;spacing=3.8;strokeColor=#3a414a;strokeOpacity=100;rounded=1;absoluteArcSize=1;arcSize=9;strokeWidth=0.8;lucidId=1zIH8hw5p2Yf;fillColor=#FFFFFF;" parent="1" vertex="1">
          <mxGeometry x="2490" y="-370" width="210" height="60" as="geometry" />
        </mxCell>
        <mxCell id="8wIIhX6IMqMjJVi14Pui-93" value="Фикстура на Опубликовать API" style="html=1;overflow=block;blockSpacing=1;whiteSpace=wrap;fontSize=16.7;fontColor=#3a414a;spacing=3.8;strokeColor=#3a414a;strokeOpacity=100;rounded=1;absoluteArcSize=1;arcSize=9;strokeWidth=0.8;lucidId=4xIH_oDmScev;fillColor=#FFCCE6;" parent="1" vertex="1">
          <mxGeometry x="2520" y="-290" width="200" height="50" as="geometry" />
        </mxCell>
        <mxCell id="8wIIhX6IMqMjJVi14Pui-95" value="Запрос на блокировку API" style="html=1;overflow=block;blockSpacing=1;whiteSpace=wrap;fontSize=16.7;fontColor=#3a414a;spacing=3.8;strokeColor=#3a414a;strokeOpacity=100;rounded=1;absoluteArcSize=1;arcSize=9;strokeWidth=0.8;lucidId=4xIH_oDmScev;fillColor=#FFFFFF;" parent="1" vertex="1">
          <mxGeometry x="2520" y="-220" width="200" height="50" as="geometry" />
        </mxCell>
        <mxCell id="8wIIhX6IMqMjJVi14Pui-96" value="запрос на Редактировать API" style="html=1;overflow=block;blockSpacing=1;whiteSpace=wrap;fontSize=16.7;fontColor=#3a414a;spacing=3.8;strokeColor=#3a414a;strokeOpacity=100;rounded=1;absoluteArcSize=1;arcSize=9;strokeWidth=0.8;lucidId=1zIH8hw5p2Yf;" parent="1" vertex="1">
          <mxGeometry x="1915" y="-290" width="200" height="50" as="geometry" />
        </mxCell>
        <mxCell id="8wIIhX6IMqMjJVi14Pui-101" value="&lt;font style=&quot;font-size: 18px;&quot;&gt;&#39; + &#39; этого подхода:&amp;nbsp;&lt;br&gt;&amp;nbsp;- нет прослойки в виде классов фич = меньше кода&lt;br&gt;- проще код&lt;br&gt;- риск в том что если что-то изменится в боди не считается потому что модель боди описывается в другом месте - в pydantic модели&lt;br&gt;&lt;div style=&quot;&quot;&gt;&lt;span style=&quot;background-color: initial;&quot;&gt;&lt;br&gt;&#39; - &#39; этого подхода:&lt;br&gt;&lt;/span&gt;&lt;/div&gt;&lt;div style=&quot;&quot;&gt;&lt;span style=&quot;background-color: initial;&quot;&gt;- риск в том что изменится что-то в наборе необходимых хэдэров = минимальный риск&lt;/span&gt;&lt;/div&gt;&lt;div style=&quot;&quot;&gt;&lt;span style=&quot;background-color: initial;&quot;&gt;- если будет планироваться уход от pydantic потребуется в кадлом тесте где есть body изменить генерацию json&lt;/span&gt;&lt;/div&gt;&lt;/font&gt;" style="text;html=1;strokeColor=none;fillColor=none;align=left;verticalAlign=middle;whiteSpace=wrap;rounded=0;" parent="1" vertex="1">
          <mxGeometry x="1690" y="-40" width="730" height="260" as="geometry" />
        </mxCell>
        <mxCell id="8wIIhX6IMqMjJVi14Pui-108" style="edgeStyle=orthogonalEdgeStyle;rounded=0;orthogonalLoop=1;jettySize=auto;html=1;exitX=0;exitY=0.5;exitDx=0;exitDy=0;entryX=0;entryY=0.5;entryDx=0;entryDy=0;" parent="1" source="8wIIhX6IMqMjJVi14Pui-103" target="8wIIhX6IMqMjJVi14Pui-104" edge="1">
          <mxGeometry relative="1" as="geometry" />
        </mxCell>
        <mxCell id="8wIIhX6IMqMjJVi14Pui-109" style="edgeStyle=orthogonalEdgeStyle;rounded=0;orthogonalLoop=1;jettySize=auto;html=1;exitX=0;exitY=0.5;exitDx=0;exitDy=0;entryX=0;entryY=0.5;entryDx=0;entryDy=0;" parent="1" source="8wIIhX6IMqMjJVi14Pui-103" target="8wIIhX6IMqMjJVi14Pui-105" edge="1">
          <mxGeometry relative="1" as="geometry" />
        </mxCell>
        <mxCell id="8wIIhX6IMqMjJVi14Pui-103" value="Фикстура Опубликовать заблокированную API:" style="html=1;overflow=block;blockSpacing=1;whiteSpace=wrap;fontSize=16.7;fontColor=#3a414a;spacing=3.8;strokeColor=#3a414a;strokeOpacity=100;rounded=1;absoluteArcSize=1;arcSize=9;strokeWidth=0.8;lucidId=1zIH8hw5p2Yf;fillColor=#FFFFFF;" parent="1" vertex="1">
          <mxGeometry x="1340" y="-365" width="210" height="60" as="geometry" />
        </mxCell>
        <mxCell id="8wIIhX6IMqMjJVi14Pui-104" value="Фикстура на Опубликовать API или метод на публикацию" style="html=1;overflow=block;blockSpacing=1;whiteSpace=wrap;fontSize=16.7;fontColor=#3a414a;spacing=3.8;strokeColor=#3a414a;strokeOpacity=100;rounded=1;absoluteArcSize=1;arcSize=9;strokeWidth=0.8;lucidId=4xIH_oDmScev;fillColor=#CCFFCC;" parent="1" vertex="1">
          <mxGeometry x="1370" y="-285" width="200" height="75" as="geometry" />
        </mxCell>
        <mxCell id="8wIIhX6IMqMjJVi14Pui-105" value="Заблокировать API" style="html=1;overflow=block;blockSpacing=1;whiteSpace=wrap;fontSize=16.7;fontColor=#3a414a;spacing=3.8;strokeColor=#3a414a;strokeOpacity=100;rounded=1;absoluteArcSize=1;arcSize=9;strokeWidth=0.8;lucidId=4xIH_oDmScev;fillColor=#FFFFFF;" parent="1" vertex="1">
          <mxGeometry x="1370" y="-190" width="200" height="50" as="geometry" />
        </mxCell>
        <mxCell id="8wIIhX6IMqMjJVi14Pui-110" value="Post запрос на Опубликовать API" style="html=1;overflow=block;blockSpacing=1;whiteSpace=wrap;fontSize=16.7;fontColor=#3a414a;spacing=3.8;strokeColor=#3a414a;strokeOpacity=100;rounded=1;absoluteArcSize=1;arcSize=9;strokeWidth=0.8;lucidId=4xIH_oDmScev;fillColor=#FFFFFF;" parent="1" vertex="1">
          <mxGeometry x="425" y="-660" width="190" height="50" as="geometry" />
        </mxCell>
        <mxCell id="8wIIhX6IMqMjJVi14Pui-111" value="запрос на Удалить API" style="html=1;overflow=block;blockSpacing=1;whiteSpace=wrap;fontSize=16.7;fontColor=#3a414a;spacing=3.8;strokeColor=#3a414a;strokeOpacity=100;rounded=1;absoluteArcSize=1;arcSize=9;strokeWidth=0.8;lucidId=4xIH_oDmScev;fillColor=#FFFFFF;" parent="1" vertex="1">
          <mxGeometry x="655" y="-660" width="190" height="50" as="geometry" />
        </mxCell>
        <mxCell id="8wIIhX6IMqMjJVi14Pui-115" value="&lt;font style=&quot;font-size: 14px;&quot;&gt;в тестах и фикстурах вызывать методы фич. В фикстурах переиспользуем фикстуры или вызваем методы фич.&lt;/font&gt;" style="text;html=1;strokeColor=none;fillColor=none;align=center;verticalAlign=middle;whiteSpace=wrap;rounded=0;" parent="1" vertex="1">
          <mxGeometry x="440" y="-575" width="1080" height="30" as="geometry" />
        </mxCell>
        <mxCell id="8wIIhX6IMqMjJVi14Pui-116" value="&lt;font style=&quot;font-size: 18px;&quot;&gt;Описать все фичи - Все действия с API, Подпиской и Продуктом&lt;/font&gt;" style="text;html=1;strokeColor=none;fillColor=none;align=center;verticalAlign=middle;whiteSpace=wrap;rounded=0;" parent="1" vertex="1">
          <mxGeometry x="500" y="-930" width="970" height="30" as="geometry" />
        </mxCell>
        <mxCell id="8wIIhX6IMqMjJVi14Pui-117" value="&lt;font style=&quot;font-size: 14px;&quot;&gt;в каждом тесте свой HTTP запрос. Фикстуры переиспользуют фикстуры.&lt;/font&gt;" style="text;html=1;strokeColor=none;fillColor=none;align=center;verticalAlign=middle;whiteSpace=wrap;rounded=0;" parent="1" vertex="1">
          <mxGeometry x="1840" y="-575" width="780" height="30" as="geometry" />
        </mxCell>
        <mxCell id="8wIIhX6IMqMjJVi14Pui-118" value="Тесты" style="html=1;overflow=block;blockSpacing=1;whiteSpace=wrap;fontSize=16.7;fontColor=#3a414a;spacing=3.8;strokeColor=#3a414a;strokeOpacity=100;rounded=1;absoluteArcSize=1;arcSize=9;strokeWidth=0.8;lucidId=WxIH~Xk1~OES;" parent="1" vertex="1">
          <mxGeometry x="430" y="-520" width="520" height="64" as="geometry" />
        </mxCell>
        <mxCell id="8wIIhX6IMqMjJVi14Pui-119" value="Фикстуры" style="html=1;overflow=block;blockSpacing=1;whiteSpace=wrap;fontSize=16.7;fontColor=#3a414a;spacing=3.8;strokeColor=#3a414a;strokeOpacity=100;rounded=1;absoluteArcSize=1;arcSize=9;strokeWidth=0.8;lucidId=WxIH~Xk1~OES;" parent="1" vertex="1">
          <mxGeometry x="1010" y="-520" width="560" height="64" as="geometry" />
        </mxCell>
        <mxCell id="8wIIhX6IMqMjJVi14Pui-120" value="Фикстура создать API с подпиской:" style="html=1;overflow=block;blockSpacing=1;whiteSpace=wrap;fontSize=16.7;fontColor=#3a414a;spacing=3.8;strokeColor=#3a414a;strokeOpacity=100;rounded=1;absoluteArcSize=1;arcSize=9;strokeWidth=0.8;lucidId=1zIH8hw5p2Yf;fillColor=#FFFFFF;" parent="1" vertex="1">
          <mxGeometry x="2210" y="-280" width="200" height="50" as="geometry" />
        </mxCell>
        <mxCell id="8wIIhX6IMqMjJVi14Pui-121" value="Опубликовать API" style="html=1;overflow=block;blockSpacing=1;whiteSpace=wrap;fontSize=16.7;fontColor=#3a414a;spacing=3.8;strokeColor=#3a414a;strokeOpacity=100;rounded=1;absoluteArcSize=1;arcSize=9;strokeWidth=0.8;lucidId=4xIH_oDmScev;fillColor=#CCFFFF;" parent="1" vertex="1">
          <mxGeometry x="2240" y="-220" width="200" height="50" as="geometry" />
        </mxCell>
        <mxCell id="8wIIhX6IMqMjJVi14Pui-122" value="Подписаться на API" style="html=1;overflow=block;blockSpacing=1;whiteSpace=wrap;fontSize=16.7;fontColor=#3a414a;spacing=3.8;strokeColor=#3a414a;strokeOpacity=100;rounded=1;absoluteArcSize=1;arcSize=9;strokeWidth=0.8;lucidId=4xIH_oDmScev;fillColor=#FFFFFF;" parent="1" vertex="1">
          <mxGeometry x="2240" y="-170" width="200" height="50" as="geometry" />
        </mxCell>
        <mxCell id="8wIIhX6IMqMjJVi14Pui-123" value="Preconditions  for tests Subscriber MicroGateWay " style="html=1;overflow=block;blockSpacing=1;whiteSpace=wrap;fontSize=16.7;fontColor=#3a414a;align=center;spacing=3.8;verticalAlign=bottom;strokeColor=#3a414a;strokeOpacity=100;fillOpacity=100;rounded=1;absoluteArcSize=1;arcSize=9;fillColor=#ffd6f5;strokeWidth=0.8;lucidId=zQgFr17hoAKF;" parent="1" vertex="1">
          <mxGeometry x="-310" y="-1690" width="1335" height="150" as="geometry" />
        </mxCell>
        <mxCell id="8wIIhX6IMqMjJVi14Pui-124" value="Tests Subscriber MicroGateWay " style="html=1;overflow=block;blockSpacing=1;whiteSpace=wrap;fontSize=16.7;fontColor=#3a414a;align=center;spacing=3.8;verticalAlign=bottom;strokeColor=#3a414a;strokeOpacity=100;fillOpacity=100;rounded=1;absoluteArcSize=1;arcSize=9;fillColor=#ffdda6;strokeWidth=0.8;lucidId=tRgFqWYRYsFr;" parent="1" vertex="1">
          <mxGeometry x="-306" y="-1495" width="1335" height="240" as="geometry" />
        </mxCell>
        <mxCell id="8wIIhX6IMqMjJVi14Pui-125" value="Подписка на API&lt;br style=&quot;font-size: 12px;&quot;&gt;187143" style="html=1;overflow=block;blockSpacing=1;whiteSpace=wrap;fontSize=12;fontColor=#3a414a;spacing=3.8;strokeColor=#3a414a;strokeOpacity=100;rounded=1;absoluteArcSize=1;arcSize=9;strokeWidth=0.8;lucidId=HRgFp-avsIRe;" parent="1" vertex="1">
          <mxGeometry x="-302.5" y="-1482" width="75" height="60" as="geometry" />
        </mxCell>
        <mxCell id="8wIIhX6IMqMjJVi14Pui-126" value="Токен" style="html=1;overflow=block;blockSpacing=1;whiteSpace=wrap;fontSize=12;fontColor=#3a414a;spacing=3.8;strokeColor=#3a414a;strokeOpacity=100;rounded=1;absoluteArcSize=1;arcSize=9;strokeWidth=0.8;lucidId=-RgF.csH5KWG;" parent="1" vertex="1">
          <mxGeometry x="-306" y="-1630" width="75" height="60" as="geometry" />
        </mxCell>
        <mxCell id="w8NURa0f5OFi1lEBoypp-3" style="rounded=0;orthogonalLoop=1;jettySize=auto;html=1;exitX=0.25;exitY=0;exitDx=0;exitDy=0;entryX=0.75;entryY=1;entryDx=0;entryDy=0;" parent="1" source="8wIIhX6IMqMjJVi14Pui-127" target="8wIIhX6IMqMjJVi14Pui-126" edge="1">
          <mxGeometry relative="1" as="geometry" />
        </mxCell>
        <mxCell id="w8NURa0f5OFi1lEBoypp-6" style="rounded=0;orthogonalLoop=1;jettySize=auto;html=1;exitX=0.25;exitY=0;exitDx=0;exitDy=0;" parent="1" source="8wIIhX6IMqMjJVi14Pui-127" target="w8NURa0f5OFi1lEBoypp-5" edge="1">
          <mxGeometry relative="1" as="geometry" />
        </mxCell>
        <mxCell id="8wIIhX6IMqMjJVi14Pui-127" value="Отписка от API&amp;nbsp;&lt;br style=&quot;font-size: 12px;&quot;&gt;187418" style="html=1;overflow=block;blockSpacing=1;whiteSpace=wrap;fontSize=12;fontColor=#3a414a;spacing=3.8;strokeColor=#3a414a;strokeOpacity=100;rounded=1;absoluteArcSize=1;arcSize=9;strokeWidth=0.8;lucidId=NVgFTFySkRIj;" parent="1" vertex="1">
          <mxGeometry x="-207.5" y="-1482" width="75" height="60" as="geometry" />
        </mxCell>
        <mxCell id="8wIIhX6IMqMjJVi14Pui-128" value="Опубликованный API" style="html=1;overflow=block;blockSpacing=1;whiteSpace=wrap;fontSize=12;fontColor=#3a414a;spacing=3.8;strokeColor=#3a414a;strokeOpacity=100;rounded=1;absoluteArcSize=1;arcSize=9;strokeWidth=0.8;lucidId=SVgFyfGoE5MS;" parent="1" vertex="1">
          <mxGeometry x="-145" y="-1630" width="100" height="60" as="geometry" />
        </mxCell>
        <mxCell id="8wIIhX6IMqMjJVi14Pui-129" value="" style="html=1;jettySize=18;whiteSpace=wrap;fontSize=13;strokeColor=#3a414a;strokeOpacity=100;strokeWidth=0.8;rounded=1;arcSize=12;startArrow=none;endArrow=block;endFill=1;exitX=0.5;exitY=-0.006;exitPerimeter=0;entryX=0.5;entryY=1.006;entryPerimeter=0;lucidId=rWgFwGafDuLJ;" parent="1" source="8wIIhX6IMqMjJVi14Pui-125" target="8wIIhX6IMqMjJVi14Pui-126" edge="1">
          <mxGeometry width="100" height="100" relative="1" as="geometry" />
        </mxCell>
        <mxCell id="8wIIhX6IMqMjJVi14Pui-133" value="Common fixtures" style="html=1;overflow=block;blockSpacing=1;whiteSpace=wrap;fontSize=21.7;fontColor=#3a414a;spacing=3.8;verticalAlign=bottom;strokeColor=#3a414a;strokeOpacity=100;fillOpacity=100;rounded=1;absoluteArcSize=1;arcSize=9;fillColor=#edf5ff;strokeWidth=0.8;lucidId=0ejFIYfhV__S;" parent="1" vertex="1">
          <mxGeometry x="650" y="-2620" width="1430" height="420" as="geometry" />
        </mxCell>
        <mxCell id="8wIIhX6IMqMjJVi14Pui-134" value="Токен digicon-test2&lt;br&gt;get_token(scope=&#39;&#39;class&quot;)" style="html=1;overflow=block;blockSpacing=1;whiteSpace=wrap;fontSize=10;fontColor=#3a414a;fontStyle=1;spacing=3.8;strokeColor=#3a414a;strokeOpacity=100;fillOpacity=100;rounded=1;absoluteArcSize=1;arcSize=9;fillColor=#e3fae3;strokeWidth=0.8;lucidId=.HsFsjw9Ovhr;" parent="1" vertex="1">
          <mxGeometry x="655" y="-2594" width="135" height="64" as="geometry" />
        </mxCell>
        <mxCell id="8wIIhX6IMqMjJVi14Pui-135" value="mgw subscriber fixtures" style="html=1;overflow=block;blockSpacing=1;whiteSpace=wrap;fontSize=16.7;fontColor=#3a414a;spacing=3.8;strokeColor=#3a414a;strokeOpacity=100;fillOpacity=100;rounded=1;absoluteArcSize=1;arcSize=9;fillColor=#edf5ff;strokeWidth=0.8;lucidId=OKsFLK3nhwAm;" parent="1" vertex="1">
          <mxGeometry x="-310" y="-1795" width="1335" height="75" as="geometry" />
        </mxCell>
        <mxCell id="8wIIhX6IMqMjJVi14Pui-136" value="Тесты API" style="html=1;overflow=block;blockSpacing=1;whiteSpace=wrap;fontSize=16.7;fontColor=#3a414a;align=center;spacing=3.8;verticalAlign=bottom;strokeColor=#3a414a;strokeOpacity=100;fillOpacity=100;rounded=1;absoluteArcSize=1;arcSize=9;fillColor=#ffdda6;strokeWidth=0.8;lucidId=F5xFpynpLdkX;" parent="1" vertex="1">
          <mxGeometry x="1055" y="-1495" width="1335" height="240" as="geometry" />
        </mxCell>
        <mxCell id="8wIIhX6IMqMjJVi14Pui-137" value="Публикация API" style="html=1;overflow=block;blockSpacing=1;whiteSpace=wrap;fontSize=11.7;fontColor=#3a414a;spacing=3.8;strokeColor=#3a414a;strokeOpacity=100;rounded=1;absoluteArcSize=1;arcSize=9;strokeWidth=0.8;lucidId=F5xFK.hVmcVw;" parent="1" vertex="1">
          <mxGeometry x="1066" y="-1480" width="75" height="60" as="geometry" />
        </mxCell>
        <mxCell id="8wIIhX6IMqMjJVi14Pui-138" value="Удаление согласованного API" style="html=1;overflow=block;blockSpacing=1;whiteSpace=wrap;fontSize=11.7;fontColor=#3a414a;spacing=3.8;strokeColor=#3a414a;strokeOpacity=100;rounded=1;absoluteArcSize=1;arcSize=9;strokeWidth=0.8;lucidId=F5xF5_P3iQP0;" parent="1" vertex="1">
          <mxGeometry x="1156" y="-1480" width="90" height="60" as="geometry" />
        </mxCell>
        <mxCell id="8wIIhX6IMqMjJVi14Pui-139" value="Preconditions  for Тесты Взаимодействие с API" style="html=1;overflow=block;blockSpacing=1;whiteSpace=wrap;fontSize=16.7;fontColor=#3a414a;align=center;spacing=3.8;verticalAlign=bottom;strokeColor=#3a414a;strokeOpacity=100;fillOpacity=100;rounded=1;absoluteArcSize=1;arcSize=9;fillColor=#ffd6f5;strokeWidth=0.8;lucidId=n9xFBBIZj7o.;" parent="1" vertex="1">
          <mxGeometry x="1055" y="-1690" width="1335" height="150" as="geometry" />
        </mxCell>
        <mxCell id="8wIIhX6IMqMjJVi14Pui-140" value="Токен" style="html=1;overflow=block;blockSpacing=1;whiteSpace=wrap;fontSize=11.7;fontColor=#3a414a;spacing=3.8;strokeColor=#3a414a;strokeOpacity=100;rounded=1;absoluteArcSize=1;arcSize=9;strokeWidth=0.8;lucidId=n9xFg7ldL.yq;" parent="1" vertex="1">
          <mxGeometry x="1059" y="-1630" width="75" height="60" as="geometry" />
        </mxCell>
        <mxCell id="8wIIhX6IMqMjJVi14Pui-141" value="Опубликованное согласованное API" style="html=1;overflow=block;blockSpacing=1;whiteSpace=wrap;fontSize=11.7;fontColor=#3a414a;spacing=3.8;strokeColor=#3a414a;strokeOpacity=100;rounded=1;absoluteArcSize=1;arcSize=9;strokeWidth=0.8;lucidId=n9xFiJmDqABo;" parent="1" vertex="1">
          <mxGeometry x="1145" y="-1630" width="105" height="60" as="geometry" />
        </mxCell>
        <mxCell id="8wIIhX6IMqMjJVi14Pui-142" value="" style="html=1;jettySize=18;whiteSpace=wrap;fontSize=13;strokeColor=#3a414a;strokeOpacity=100;strokeWidth=0.8;rounded=1;arcSize=12;startArrow=none;endArrow=block;endFill=1;entryX=0.5;entryY=1.006;entryPerimeter=0;lucidId=n9xFRMrTWfGT;" parent="1" target="8wIIhX6IMqMjJVi14Pui-140" edge="1">
          <mxGeometry width="100" height="100" relative="1" as="geometry">
            <mxPoint x="1108" y="-1480" as="sourcePoint" />
          </mxGeometry>
        </mxCell>
        <mxCell id="8wIIhX6IMqMjJVi14Pui-143" value="подписка аутер" style="html=1;overflow=block;blockSpacing=1;whiteSpace=wrap;fontSize=8.3;fontColor=#3a414a;spacing=3.8;strokeColor=#3a414a;strokeOpacity=100;rounded=1;absoluteArcSize=1;arcSize=9;strokeWidth=0.8;lucidId=n9xFRL5Nh~0B;" parent="1" vertex="1">
          <mxGeometry x="1460" y="-1630" width="75" height="60" as="geometry" />
        </mxCell>
        <mxCell id="8wIIhX6IMqMjJVi14Pui-144" value="&lt;div style=&quot;display: flex; justify-content: center; text-align: center; align-items: baseline; font-size: 0; line-height: 1.25;margin-top: -2px;&quot;&gt;&lt;span&gt;&lt;span style=&quot;font-size:16.7px;color:#3a414a;&quot;&gt;Взаимодействие с API fixtures. ФИкстуру которые используются только в &lt;/span&gt;&lt;span style=&quot;font-size:16.7px;color:#3a414a;&quot;&gt;Тесты Взаимодействие с API&lt;/span&gt;&lt;/span&gt;&lt;/div&gt;" style="html=1;overflow=block;blockSpacing=1;whiteSpace=wrap;fontSize=13;spacing=3.8;strokeColor=#3a414a;strokeOpacity=100;fillOpacity=100;rounded=1;absoluteArcSize=1;arcSize=9;fillColor=#edf5ff;strokeWidth=0.8;lucidId=E9xFGHM~~WRK;" parent="1" vertex="1">
          <mxGeometry x="1055" y="-1795" width="1335" height="75" as="geometry" />
        </mxCell>
        <mxCell id="8wIIhX6IMqMjJVi14Pui-145" value="напрямую в БД" style="html=1;overflow=block;blockSpacing=1;whiteSpace=wrap;shape=cylinder3;size=4;anchorPointDirection=0;boundedLbl=1;fontSize=11.7;fontColor=#3a414a;spacing=3.8;strokeColor=#3a414a;strokeOpacity=100;rounded=1;absoluteArcSize=1;arcSize=9;strokeWidth=0.8;lucidId=DeNFWSBl3F72;" parent="1" vertex="1">
          <mxGeometry x="620" y="-1645" width="75" height="60" as="geometry" />
        </mxCell>
        <mxCell id="8wIIhX6IMqMjJVi14Pui-146" value="напрямую в БД" style="html=1;overflow=block;blockSpacing=1;whiteSpace=wrap;shape=cylinder3;size=4;anchorPointDirection=0;boundedLbl=1;fontSize=11.7;fontColor=#3a414a;spacing=3.8;strokeColor=#3a414a;strokeOpacity=100;rounded=1;absoluteArcSize=1;arcSize=9;strokeWidth=0.8;lucidId=1eNFhPtGth42;" parent="1" vertex="1">
          <mxGeometry x="1610" y="-1630" width="75" height="60" as="geometry" />
        </mxCell>
        <mxCell id="8wIIhX6IMqMjJVi14Pui-149" value="" style="html=1;jettySize=18;whiteSpace=wrap;fontSize=13;strokeColor=#3a414a;strokeOpacity=100;strokeWidth=0.8;rounded=1;arcSize=12;startArrow=none;endArrow=block;endFill=1;exitX=0.5;exitY=-0.006;exitPerimeter=0;entryX=0.461;entryY=1.006;entryPerimeter=0;lucidId=N.uG1gS6YQoZ;" parent="1" source="8wIIhX6IMqMjJVi14Pui-138" target="8wIIhX6IMqMjJVi14Pui-141" edge="1">
          <mxGeometry width="100" height="100" relative="1" as="geometry" />
        </mxCell>
        <mxCell id="8wIIhX6IMqMjJVi14Pui-152" value="Удаление не согласованного API" style="html=1;overflow=block;blockSpacing=1;whiteSpace=wrap;fontSize=11.7;fontColor=#3a414a;spacing=3.8;strokeColor=#3a414a;strokeOpacity=100;rounded=1;absoluteArcSize=1;arcSize=9;strokeWidth=0.8;lucidId=kbvGtGo.t9tn;" parent="1" vertex="1">
          <mxGeometry x="1250" y="-1482" width="90" height="63" as="geometry" />
        </mxCell>
        <mxCell id="8wIIhX6IMqMjJVi14Pui-153" value="Опубликованное не согласованное API" style="html=1;overflow=block;blockSpacing=1;whiteSpace=wrap;fontSize=11.7;fontColor=#3a414a;spacing=3.8;strokeColor=#3a414a;strokeOpacity=100;rounded=1;absoluteArcSize=1;arcSize=9;strokeWidth=0.8;lucidId=DbvGWTj_MP2Y;" parent="1" vertex="1">
          <mxGeometry x="1261" y="-1630" width="105" height="60" as="geometry" />
        </mxCell>
        <mxCell id="8wIIhX6IMqMjJVi14Pui-154" value="" style="html=1;jettySize=18;whiteSpace=wrap;fontSize=13;strokeColor=#3a414a;strokeOpacity=100;strokeWidth=0.8;rounded=1;arcSize=12;startArrow=none;endArrow=block;endFill=1;exitX=0.5;exitY=-0.006;exitPerimeter=0;entryX=0.5;entryY=1.006;entryPerimeter=0;lucidId=0bvG0SfnBJZM;" parent="1" source="8wIIhX6IMqMjJVi14Pui-152" target="8wIIhX6IMqMjJVi14Pui-153" edge="1">
          <mxGeometry width="100" height="100" relative="1" as="geometry" />
        </mxCell>
        <mxCell id="8wIIhX6IMqMjJVi14Pui-156" value="" style="html=1;jettySize=18;whiteSpace=wrap;fontSize=13;strokeColor=#3a414a;strokeOpacity=100;strokeWidth=0.8;rounded=1;arcSize=12;startArrow=none;endArrow=block;endFill=1;exitX=0.5;exitY=-0.006;exitPerimeter=0;entryX=0.5;entryY=1.006;entryPerimeter=0;lucidId=udvGKePhi~Q1;" parent="1" source="8wIIhX6IMqMjJVi14Pui-138" target="8wIIhX6IMqMjJVi14Pui-140" edge="1">
          <mxGeometry width="100" height="100" relative="1" as="geometry" />
        </mxCell>
        <mxCell id="8wIIhX6IMqMjJVi14Pui-157" value="" style="html=1;jettySize=18;whiteSpace=wrap;fontSize=13;strokeColor=#3a414a;strokeOpacity=100;strokeWidth=0.8;rounded=1;arcSize=12;startArrow=none;endArrow=block;endFill=1;exitX=0.5;exitY=-0.006;exitPerimeter=0;entryX=0.872;entryY=1.006;entryPerimeter=0;lucidId=ydvGuh78QtpC;" parent="1" source="8wIIhX6IMqMjJVi14Pui-152" target="8wIIhX6IMqMjJVi14Pui-140" edge="1">
          <mxGeometry width="100" height="100" relative="1" as="geometry" />
        </mxCell>
        <mxCell id="8wIIhX6IMqMjJVi14Pui-159" value="" style="html=1;jettySize=18;whiteSpace=wrap;fontSize=13;strokeColor=#3a414a;strokeOpacity=100;strokeWidth=0.8;rounded=1;arcSize=12;startArrow=none;endArrow=block;endFill=1;exitX=0.5;exitY=-0.006;exitPerimeter=0;entryX=0.5;entryY=1.006;entryPerimeter=0;lucidId=9jHHiJ3k46Nl;" parent="1" source="8wIIhX6IMqMjJVi14Pui-125" target="8wIIhX6IMqMjJVi14Pui-128" edge="1">
          <mxGeometry width="100" height="100" relative="1" as="geometry" />
        </mxCell>
        <mxCell id="8wIIhX6IMqMjJVi14Pui-160" value="" style="html=1;jettySize=18;whiteSpace=wrap;fontSize=13;strokeColor=#3a414a;strokeOpacity=100;strokeWidth=0.8;rounded=1;arcSize=12;startArrow=none;endArrow=block;endFill=1;exitX=0.5;exitY=-0.006;exitPerimeter=0;entryX=0.073;entryY=1.006;entryPerimeter=0;lucidId=AkHHoeYGRdyX;" parent="1" source="8wIIhX6IMqMjJVi14Pui-126" target="8wIIhX6IMqMjJVi14Pui-134" edge="1">
          <mxGeometry width="100" height="100" relative="1" as="geometry" />
        </mxCell>
        <mxCell id="8wIIhX6IMqMjJVi14Pui-161" value="" style="html=1;jettySize=18;whiteSpace=wrap;fontSize=13;strokeColor=#3a414a;strokeOpacity=100;strokeWidth=0.8;rounded=1;arcSize=12;startArrow=none;endArrow=block;endFill=1;exitX=0.5;exitY=-0.006;exitPerimeter=0;entryX=0.25;entryY=1;lucidId=GkHHjMZPoM.n;entryDx=0;entryDy=0;" parent="1" source="8wIIhX6IMqMjJVi14Pui-128" target="w8NURa0f5OFi1lEBoypp-1" edge="1">
          <mxGeometry width="100" height="100" relative="1" as="geometry" />
        </mxCell>
        <mxCell id="XmF13I8RruSuAjKzp-kF-1" value="" style="rounded=0;whiteSpace=wrap;html=1;glass=0;shadow=1;fillColor=#ffe6cc;strokeColor=#d79b00;" parent="1" vertex="1">
          <mxGeometry x="-630" y="-1120" width="650" height="710" as="geometry" />
        </mxCell>
        <mxCell id="ezfLOejJH9Y_Za3DY-dV-3" style="edgeStyle=orthogonalEdgeStyle;rounded=0;orthogonalLoop=1;jettySize=auto;html=1;exitX=1;exitY=0.5;exitDx=0;exitDy=0;entryX=0;entryY=0.5;entryDx=0;entryDy=0;" parent="1" source="XmF13I8RruSuAjKzp-kF-2" target="XmF13I8RruSuAjKzp-kF-3" edge="1">
          <mxGeometry relative="1" as="geometry" />
        </mxCell>
        <mxCell id="ezfLOejJH9Y_Za3DY-dV-4" style="edgeStyle=orthogonalEdgeStyle;rounded=0;orthogonalLoop=1;jettySize=auto;html=1;exitX=0.5;exitY=1;exitDx=0;exitDy=0;entryX=0.218;entryY=-0.015;entryDx=0;entryDy=0;entryPerimeter=0;" parent="1" source="XmF13I8RruSuAjKzp-kF-2" target="XmF13I8RruSuAjKzp-kF-4" edge="1">
          <mxGeometry relative="1" as="geometry" />
        </mxCell>
        <mxCell id="XmF13I8RruSuAjKzp-kF-2" value="Тесты&amp;nbsp;" style="rounded=0;whiteSpace=wrap;html=1;" parent="1" vertex="1">
          <mxGeometry x="-600" y="-1060" width="260" height="100" as="geometry" />
        </mxCell>
        <mxCell id="XmF13I8RruSuAjKzp-kF-3" value="Фикстуры" style="rounded=0;whiteSpace=wrap;html=1;verticalAlign=top;" parent="1" vertex="1">
          <mxGeometry x="-302.5" y="-1060" width="280" height="100" as="geometry" />
        </mxCell>
        <mxCell id="ezfLOejJH9Y_Za3DY-dV-8" style="edgeStyle=orthogonalEdgeStyle;rounded=0;orthogonalLoop=1;jettySize=auto;html=1;exitX=0.5;exitY=1;exitDx=0;exitDy=0;entryX=0.5;entryY=0;entryDx=0;entryDy=0;" parent="1" source="XmF13I8RruSuAjKzp-kF-4" target="ezfLOejJH9Y_Za3DY-dV-7" edge="1">
          <mxGeometry relative="1" as="geometry" />
        </mxCell>
        <mxCell id="XmF13I8RruSuAjKzp-kF-4" value="api" style="rounded=0;whiteSpace=wrap;html=1;verticalAlign=top;" parent="1" vertex="1">
          <mxGeometry x="-600" y="-810" width="600" height="100" as="geometry" />
        </mxCell>
        <mxCell id="XmF13I8RruSuAjKzp-kF-5" value="API" style="rounded=0;whiteSpace=wrap;html=1;" parent="1" vertex="1">
          <mxGeometry x="-582.5" y="-790" width="180" height="60" as="geometry" />
        </mxCell>
        <mxCell id="XmF13I8RruSuAjKzp-kF-6" value="Подписка" style="rounded=0;whiteSpace=wrap;html=1;" parent="1" vertex="1">
          <mxGeometry x="-385" y="-790" width="180" height="60" as="geometry" />
        </mxCell>
        <mxCell id="XmF13I8RruSuAjKzp-kF-7" value="Продукт" style="rounded=0;whiteSpace=wrap;html=1;" parent="1" vertex="1">
          <mxGeometry x="-190" y="-790" width="180" height="60" as="geometry" />
        </mxCell>
        <mxCell id="w8NURa0f5OFi1lEBoypp-2" value="" style="group" parent="1" vertex="1" connectable="0">
          <mxGeometry x="984" y="-2594" width="150" height="128" as="geometry" />
        </mxCell>
        <mxCell id="w8NURa0f5OFi1lEBoypp-7" value="" style="group" parent="w8NURa0f5OFi1lEBoypp-2" vertex="1" connectable="0">
          <mxGeometry width="150" height="128" as="geometry" />
        </mxCell>
        <mxCell id="8wIIhX6IMqMjJVi14Pui-148" value="&lt;b&gt;get_api&lt;/b&gt;&lt;br&gt;Опубликованное и согласованное API" style="html=1;overflow=block;blockSpacing=1;whiteSpace=wrap;fontSize=11.7;fontColor=#3a414a;spacing=3.8;strokeColor=#3a414a;strokeOpacity=100;rounded=1;absoluteArcSize=1;arcSize=9;strokeWidth=0.8;lucidId=21aG1TBDxjcq;" parent="w8NURa0f5OFi1lEBoypp-7" vertex="1">
          <mxGeometry width="150" height="64" as="geometry" />
        </mxCell>
        <mxCell id="w8NURa0f5OFi1lEBoypp-1" value="teardown:&lt;br&gt;удаление подписки&lt;br&gt;удаление API" style="html=1;overflow=block;blockSpacing=1;whiteSpace=wrap;fontSize=11.7;fontColor=#3a414a;spacing=3.8;strokeColor=#3a414a;strokeOpacity=100;rounded=1;absoluteArcSize=1;arcSize=9;strokeWidth=0.8;lucidId=21aG1TBDxjcq;" parent="w8NURa0f5OFi1lEBoypp-7" vertex="1">
          <mxGeometry y="64" width="150" height="64" as="geometry" />
        </mxCell>
        <mxCell id="w8NURa0f5OFi1lEBoypp-13" style="rounded=0;orthogonalLoop=1;jettySize=auto;html=1;exitX=0.5;exitY=0;exitDx=0;exitDy=0;entryX=0.5;entryY=1;entryDx=0;entryDy=0;" parent="1" source="w8NURa0f5OFi1lEBoypp-5" target="w8NURa0f5OFi1lEBoypp-11" edge="1">
          <mxGeometry relative="1" as="geometry" />
        </mxCell>
        <mxCell id="w8NURa0f5OFi1lEBoypp-5" value="Опубликованный API с подпиской" style="html=1;overflow=block;blockSpacing=1;whiteSpace=wrap;fontSize=12;fontColor=#3a414a;spacing=3.8;strokeColor=#3a414a;strokeOpacity=100;rounded=1;absoluteArcSize=1;arcSize=9;strokeWidth=0.8;lucidId=SVgFyfGoE5MS;" parent="1" vertex="1">
          <mxGeometry x="-40" y="-1630" width="110" height="60" as="geometry" />
        </mxCell>
        <mxCell id="w8NURa0f5OFi1lEBoypp-8" value="" style="group;" parent="1" vertex="1" connectable="0">
          <mxGeometry x="1150" y="-2594" width="215" height="128" as="geometry" />
        </mxCell>
        <mxCell id="w8NURa0f5OFi1lEBoypp-9" value="" style="group" parent="w8NURa0f5OFi1lEBoypp-8" vertex="1" connectable="0">
          <mxGeometry width="215" height="128" as="geometry" />
        </mxCell>
        <mxCell id="w8NURa0f5OFi1lEBoypp-10" value="&lt;b&gt;get_api_with_subscription&lt;/b&gt;&lt;br&gt;Опубликованное согласованное API&lt;br&gt;Подписка на эту API" style="html=1;overflow=block;blockSpacing=1;whiteSpace=wrap;fontSize=11.7;fontColor=#3a414a;spacing=3.8;strokeColor=#3a414a;strokeOpacity=100;rounded=1;absoluteArcSize=1;arcSize=9;strokeWidth=0.8;lucidId=21aG1TBDxjcq;" parent="w8NURa0f5OFi1lEBoypp-9" vertex="1">
          <mxGeometry width="215" height="64" as="geometry" />
        </mxCell>
        <mxCell id="w8NURa0f5OFi1lEBoypp-11" value="teardown:&lt;br&gt;удаление подписки&lt;br&gt;удаление API" style="html=1;overflow=block;blockSpacing=1;whiteSpace=wrap;fontSize=11.7;fontColor=#3a414a;spacing=3.8;strokeColor=#3a414a;strokeOpacity=100;rounded=1;absoluteArcSize=1;arcSize=9;strokeWidth=0.8;lucidId=21aG1TBDxjcq;" parent="w8NURa0f5OFi1lEBoypp-9" vertex="1">
          <mxGeometry y="64" width="215" height="64" as="geometry" />
        </mxCell>
        <mxCell id="w8NURa0f5OFi1lEBoypp-15" style="rounded=0;orthogonalLoop=1;jettySize=auto;html=1;exitX=0.25;exitY=0;exitDx=0;exitDy=0;entryX=0.75;entryY=1;entryDx=0;entryDy=0;" parent="1" source="w8NURa0f5OFi1lEBoypp-14" target="8wIIhX6IMqMjJVi14Pui-126" edge="1">
          <mxGeometry relative="1" as="geometry" />
        </mxCell>
        <mxCell id="w8NURa0f5OFi1lEBoypp-16" style="rounded=0;orthogonalLoop=1;jettySize=auto;html=1;exitX=0.25;exitY=0;exitDx=0;exitDy=0;entryX=0.75;entryY=1;entryDx=0;entryDy=0;" parent="1" source="w8NURa0f5OFi1lEBoypp-14" target="8wIIhX6IMqMjJVi14Pui-128" edge="1">
          <mxGeometry relative="1" as="geometry" />
        </mxCell>
        <mxCell id="w8NURa0f5OFi1lEBoypp-20" style="rounded=0;orthogonalLoop=1;jettySize=auto;html=1;exitX=0.25;exitY=0;exitDx=0;exitDy=0;" parent="1" source="w8NURa0f5OFi1lEBoypp-14" target="w8NURa0f5OFi1lEBoypp-19" edge="1">
          <mxGeometry relative="1" as="geometry" />
        </mxCell>
        <mxCell id="w8NURa0f5OFi1lEBoypp-14" value="Блокировка API&lt;br&gt;187194" style="html=1;overflow=block;blockSpacing=1;whiteSpace=wrap;fontSize=12;fontColor=#3a414a;spacing=3.8;strokeColor=#3a414a;strokeOpacity=100;rounded=1;absoluteArcSize=1;arcSize=9;strokeWidth=0.8;lucidId=NVgFTFySkRIj;" parent="1" vertex="1">
          <mxGeometry x="-120" y="-1482" width="75" height="60" as="geometry" />
        </mxCell>
        <mxCell id="w8NURa0f5OFi1lEBoypp-18" style="rounded=0;orthogonalLoop=1;jettySize=auto;html=1;exitX=0.5;exitY=0;exitDx=0;exitDy=0;" parent="1" source="w8NURa0f5OFi1lEBoypp-17" target="8wIIhX6IMqMjJVi14Pui-126" edge="1">
          <mxGeometry relative="1" as="geometry" />
        </mxCell>
        <mxCell id="w8NURa0f5OFi1lEBoypp-23" style="rounded=0;orthogonalLoop=1;jettySize=auto;html=1;exitX=0.5;exitY=0;exitDx=0;exitDy=0;entryX=1;entryY=1;entryDx=0;entryDy=0;" parent="1" source="w8NURa0f5OFi1lEBoypp-17" target="w8NURa0f5OFi1lEBoypp-19" edge="1">
          <mxGeometry relative="1" as="geometry" />
        </mxCell>
        <mxCell id="w8NURa0f5OFi1lEBoypp-25" style="rounded=0;orthogonalLoop=1;jettySize=auto;html=1;exitX=0.5;exitY=0;exitDx=0;exitDy=0;" parent="1" source="w8NURa0f5OFi1lEBoypp-17" target="w8NURa0f5OFi1lEBoypp-24" edge="1">
          <mxGeometry relative="1" as="geometry">
            <mxPoint x="20" y="-1480" as="sourcePoint" />
          </mxGeometry>
        </mxCell>
        <mxCell id="w8NURa0f5OFi1lEBoypp-17" value="Разблокировка API&lt;br&gt;187393" style="html=1;overflow=block;blockSpacing=1;whiteSpace=wrap;fontSize=12;fontColor=#3a414a;spacing=3.8;strokeColor=#3a414a;strokeOpacity=100;rounded=1;absoluteArcSize=1;arcSize=9;strokeWidth=0.8;lucidId=NVgFTFySkRIj;" parent="1" vertex="1">
          <mxGeometry x="-32.5" y="-1480.5" width="100" height="60" as="geometry" />
        </mxCell>
        <mxCell id="w8NURa0f5OFi1lEBoypp-22" style="rounded=0;orthogonalLoop=1;jettySize=auto;html=1;exitX=0.5;exitY=0;exitDx=0;exitDy=0;entryX=0.25;entryY=1;entryDx=0;entryDy=0;" parent="1" source="w8NURa0f5OFi1lEBoypp-19" target="w8NURa0f5OFi1lEBoypp-21" edge="1">
          <mxGeometry relative="1" as="geometry" />
        </mxCell>
        <mxCell id="w8NURa0f5OFi1lEBoypp-19" value="Токен админский" style="html=1;overflow=block;blockSpacing=1;whiteSpace=wrap;fontSize=12;fontColor=#3a414a;spacing=3.8;strokeColor=#3a414a;strokeOpacity=100;rounded=1;absoluteArcSize=1;arcSize=9;strokeWidth=0.8;lucidId=-RgF.csH5KWG;" parent="1" vertex="1">
          <mxGeometry x="-227.5" y="-1630" width="75" height="60" as="geometry" />
        </mxCell>
        <mxCell id="w8NURa0f5OFi1lEBoypp-21" value="Токен digicon-test-admin&lt;br&gt;get_admin_token(scope=&#39;&#39;function&quot;)" style="html=1;overflow=block;blockSpacing=1;whiteSpace=wrap;fontSize=10;fontColor=#3a414a;fontStyle=1;spacing=3.8;strokeColor=#3a414a;strokeOpacity=100;fillOpacity=100;rounded=1;absoluteArcSize=1;arcSize=9;fillColor=#e3fae3;strokeWidth=0.8;lucidId=.HsFsjw9Ovhr;" parent="1" vertex="1">
          <mxGeometry x="805" y="-2594" width="175" height="64" as="geometry" />
        </mxCell>
        <mxCell id="w8NURa0f5OFi1lEBoypp-31" style="rounded=0;orthogonalLoop=1;jettySize=auto;html=1;exitX=0.5;exitY=0;exitDx=0;exitDy=0;" parent="1" source="w8NURa0f5OFi1lEBoypp-24" target="w8NURa0f5OFi1lEBoypp-29" edge="1">
          <mxGeometry relative="1" as="geometry" />
        </mxCell>
        <mxCell id="w8NURa0f5OFi1lEBoypp-24" value="Опубликованный заблокированный API с подпиской" style="html=1;overflow=block;blockSpacing=1;whiteSpace=wrap;fontSize=12;fontColor=#3a414a;spacing=3.8;strokeColor=#3a414a;strokeOpacity=100;rounded=1;absoluteArcSize=1;arcSize=9;strokeWidth=0.8;lucidId=SVgFyfGoE5MS;" parent="1" vertex="1">
          <mxGeometry x="80" y="-1630" width="110" height="60" as="geometry" />
        </mxCell>
        <mxCell id="w8NURa0f5OFi1lEBoypp-26" value="" style="group;" parent="1" vertex="1" connectable="0">
          <mxGeometry x="1375" y="-2594" width="215" height="128" as="geometry" />
        </mxCell>
        <mxCell id="w8NURa0f5OFi1lEBoypp-27" value="" style="group" parent="w8NURa0f5OFi1lEBoypp-26" vertex="1" connectable="0">
          <mxGeometry width="215" height="128" as="geometry" />
        </mxCell>
        <mxCell id="w8NURa0f5OFi1lEBoypp-28" value="&lt;b&gt;get_blocked_api_w_subscription&lt;/b&gt;&lt;br&gt;Опубликованное согласованное API&lt;br&gt;Подписка на эту API&lt;br&gt;Блокировка этой API" style="html=1;overflow=block;blockSpacing=1;whiteSpace=wrap;fontSize=11.7;fontColor=#3a414a;spacing=3.8;strokeColor=#3a414a;strokeOpacity=100;rounded=1;absoluteArcSize=1;arcSize=9;strokeWidth=0.8;lucidId=21aG1TBDxjcq;" parent="w8NURa0f5OFi1lEBoypp-27" vertex="1">
          <mxGeometry width="215" height="64" as="geometry" />
        </mxCell>
        <mxCell id="w8NURa0f5OFi1lEBoypp-29" value="teardown:&lt;br&gt;Проверяет заблокировано ли API, если да - разблокирует" style="html=1;overflow=block;blockSpacing=1;whiteSpace=wrap;fontSize=11.7;fontColor=#3a414a;spacing=3.8;strokeColor=#3a414a;strokeOpacity=100;rounded=1;absoluteArcSize=1;arcSize=9;strokeWidth=0.8;lucidId=21aG1TBDxjcq;" parent="w8NURa0f5OFi1lEBoypp-27" vertex="1">
          <mxGeometry y="64" width="215" height="64" as="geometry" />
        </mxCell>
        <mxCell id="w8NURa0f5OFi1lEBoypp-30" style="edgeStyle=orthogonalEdgeStyle;rounded=0;orthogonalLoop=1;jettySize=auto;html=1;exitX=0;exitY=0.5;exitDx=0;exitDy=0;entryX=1;entryY=0.5;entryDx=0;entryDy=0;" parent="1" source="w8NURa0f5OFi1lEBoypp-28" target="w8NURa0f5OFi1lEBoypp-10" edge="1">
          <mxGeometry relative="1" as="geometry" />
        </mxCell>
        <mxCell id="w8NURa0f5OFi1lEBoypp-32" value="LIbraries" style="rounded=0;whiteSpace=wrap;html=1;verticalAlign=top;" parent="1" vertex="1">
          <mxGeometry x="-595" y="-555" width="590" height="105" as="geometry" />
        </mxCell>
        <mxCell id="ezfLOejJH9Y_Za3DY-dV-1" value="Payload generator ???" style="rounded=0;whiteSpace=wrap;html=1;" parent="1" vertex="1">
          <mxGeometry x="-760" y="-675" width="120" height="60" as="geometry" />
        </mxCell>
        <mxCell id="ezfLOejJH9Y_Za3DY-dV-22" style="edgeStyle=orthogonalEdgeStyle;rounded=0;orthogonalLoop=1;jettySize=auto;html=1;exitX=0;exitY=0.5;exitDx=0;exitDy=0;entryX=1;entryY=0.5;entryDx=0;entryDy=0;" parent="1" source="ezfLOejJH9Y_Za3DY-dV-2" target="ezfLOejJH9Y_Za3DY-dV-14" edge="1">
          <mxGeometry relative="1" as="geometry" />
        </mxCell>
        <mxCell id="ezfLOejJH9Y_Za3DY-dV-2" value="Account generator via DB ???" style="rounded=0;whiteSpace=wrap;html=1;" parent="1" vertex="1">
          <mxGeometry x="210" y="-675" width="120" height="60" as="geometry" />
        </mxCell>
        <mxCell id="ezfLOejJH9Y_Za3DY-dV-10" style="edgeStyle=orthogonalEdgeStyle;rounded=0;orthogonalLoop=1;jettySize=auto;html=1;exitX=0.5;exitY=1;exitDx=0;exitDy=0;entryX=0.5;entryY=0;entryDx=0;entryDy=0;" parent="1" source="ezfLOejJH9Y_Za3DY-dV-7" target="w8NURa0f5OFi1lEBoypp-32" edge="1">
          <mxGeometry relative="1" as="geometry" />
        </mxCell>
        <mxCell id="ezfLOejJH9Y_Za3DY-dV-7" value="" style="rounded=0;whiteSpace=wrap;html=1;" parent="1" vertex="1">
          <mxGeometry x="-600" y="-685" width="600" height="80" as="geometry" />
        </mxCell>
        <mxCell id="XmF13I8RruSuAjKzp-kF-8" value="HTTP manager" style="rounded=0;whiteSpace=wrap;html=1;" parent="1" vertex="1">
          <mxGeometry x="-590" y="-675" width="120" height="60" as="geometry" />
        </mxCell>
        <mxCell id="XmF13I8RruSuAjKzp-kF-9" value="Log manager" style="rounded=0;whiteSpace=wrap;html=1;" parent="1" vertex="1">
          <mxGeometry x="-460" y="-675" width="120" height="60" as="geometry" />
        </mxCell>
        <mxCell id="ezfLOejJH9Y_Za3DY-dV-13" style="edgeStyle=orthogonalEdgeStyle;rounded=0;orthogonalLoop=1;jettySize=auto;html=1;exitX=0.5;exitY=1;exitDx=0;exitDy=0;entryX=0.66;entryY=-0.035;entryDx=0;entryDy=0;entryPerimeter=0;" parent="1" source="ezfLOejJH9Y_Za3DY-dV-11" target="XmF13I8RruSuAjKzp-kF-4" edge="1">
          <mxGeometry relative="1" as="geometry" />
        </mxCell>
        <mxCell id="ezfLOejJH9Y_Za3DY-dV-11" value="через API" style="rounded=1;whiteSpace=wrap;html=1;" parent="1" vertex="1">
          <mxGeometry x="-240" y="-1040" width="70" height="60" as="geometry" />
        </mxCell>
        <mxCell id="ezfLOejJH9Y_Za3DY-dV-21" style="edgeStyle=orthogonalEdgeStyle;rounded=0;orthogonalLoop=1;jettySize=auto;html=1;exitX=1;exitY=0.5;exitDx=0;exitDy=0;entryX=1;entryY=0.5;entryDx=0;entryDy=0;" parent="1" source="ezfLOejJH9Y_Za3DY-dV-12" target="ezfLOejJH9Y_Za3DY-dV-2" edge="1">
          <mxGeometry relative="1" as="geometry" />
        </mxCell>
        <mxCell id="ezfLOejJH9Y_Za3DY-dV-12" value="через DB?" style="rounded=1;whiteSpace=wrap;html=1;" parent="1" vertex="1">
          <mxGeometry x="40" y="-1040" width="70" height="60" as="geometry" />
        </mxCell>
        <mxCell id="ezfLOejJH9Y_Za3DY-dV-14" value="DB manager ?" style="rounded=0;whiteSpace=wrap;html=1;" parent="1" vertex="1">
          <mxGeometry x="60" y="-675" width="120" height="60" as="geometry" />
        </mxCell>
        <mxCell id="ezfLOejJH9Y_Za3DY-dV-17" value="requests" style="rounded=0;whiteSpace=wrap;html=1;" parent="1" vertex="1">
          <mxGeometry x="-590" y="-520" width="90" height="60" as="geometry" />
        </mxCell>
        <mxCell id="ezfLOejJH9Y_Za3DY-dV-19" value="logger" style="rounded=0;whiteSpace=wrap;html=1;" parent="1" vertex="1">
          <mxGeometry x="-492.5" y="-520" width="90" height="60" as="geometry" />
        </mxCell>
        <mxCell id="O1xqqZkS_VdmGz6PFEvQ-2" style="rounded=0;orthogonalLoop=1;jettySize=auto;html=1;exitX=0.5;exitY=0;exitDx=0;exitDy=0;entryX=0.5;entryY=1;entryDx=0;entryDy=0;" parent="1" source="O1xqqZkS_VdmGz6PFEvQ-1" target="w8NURa0f5OFi1lEBoypp-5" edge="1">
          <mxGeometry relative="1" as="geometry" />
        </mxCell>
        <mxCell id="O1xqqZkS_VdmGz6PFEvQ-3" style="rounded=0;orthogonalLoop=1;jettySize=auto;html=1;exitX=0.5;exitY=0;exitDx=0;exitDy=0;entryX=0.5;entryY=1;entryDx=0;entryDy=0;" parent="1" source="O1xqqZkS_VdmGz6PFEvQ-1" target="8wIIhX6IMqMjJVi14Pui-126" edge="1">
          <mxGeometry relative="1" as="geometry" />
        </mxCell>
        <mxCell id="O1xqqZkS_VdmGz6PFEvQ-4" style="rounded=0;orthogonalLoop=1;jettySize=auto;html=1;exitX=0.5;exitY=0;exitDx=0;exitDy=0;entryX=0.5;entryY=1;entryDx=0;entryDy=0;" parent="1" source="O1xqqZkS_VdmGz6PFEvQ-1" target="w8NURa0f5OFi1lEBoypp-19" edge="1">
          <mxGeometry relative="1" as="geometry" />
        </mxCell>
        <mxCell id="O1xqqZkS_VdmGz6PFEvQ-1" value="Блокировка подписки&lt;br&gt;187396" style="html=1;overflow=block;blockSpacing=1;whiteSpace=wrap;fontSize=12;fontColor=#3a414a;spacing=3.8;strokeColor=#3a414a;strokeOpacity=100;rounded=1;absoluteArcSize=1;arcSize=9;strokeWidth=0.8;lucidId=NVgFTFySkRIj;" parent="1" vertex="1">
          <mxGeometry x="80" y="-1480.5" width="100" height="60" as="geometry" />
        </mxCell>
        <mxCell id="D7JouzgSdKYdKJIGmkKF-2" value="pydantic" style="rounded=0;whiteSpace=wrap;html=1;" parent="1" vertex="1">
          <mxGeometry x="-396" y="-520" width="90" height="60" as="geometry" />
        </mxCell>
        <mxCell id="kmCk78sxzQ4BqWDgQNSe-1" value="Cleaner ???" style="rounded=0;whiteSpace=wrap;html=1;" vertex="1" parent="1">
          <mxGeometry x="-760" y="-910" width="120" height="60" as="geometry" />
        </mxCell>
        <mxCell id="kmCk78sxzQ4BqWDgQNSe-2" value="account generator???" style="rounded=0;whiteSpace=wrap;html=1;" vertex="1" parent="1">
          <mxGeometry x="-890" y="-910" width="120" height="60" as="geometry" />
        </mxCell>
        <mxCell id="kmCk78sxzQ4BqWDgQNSe-4" style="rounded=0;orthogonalLoop=1;jettySize=auto;html=1;exitX=0.5;exitY=0;exitDx=0;exitDy=0;" edge="1" parent="1" source="kmCk78sxzQ4BqWDgQNSe-3" target="8wIIhX6IMqMjJVi14Pui-126">
          <mxGeometry relative="1" as="geometry" />
        </mxCell>
        <mxCell id="kmCk78sxzQ4BqWDgQNSe-5" style="rounded=0;orthogonalLoop=1;jettySize=auto;html=1;exitX=0.5;exitY=0;exitDx=0;exitDy=0;" edge="1" parent="1" source="kmCk78sxzQ4BqWDgQNSe-3" target="w8NURa0f5OFi1lEBoypp-19">
          <mxGeometry relative="1" as="geometry" />
        </mxCell>
        <mxCell id="kmCk78sxzQ4BqWDgQNSe-6" style="rounded=0;orthogonalLoop=1;jettySize=auto;html=1;exitX=0.5;exitY=0;exitDx=0;exitDy=0;" edge="1" parent="1" source="kmCk78sxzQ4BqWDgQNSe-3" target="kmCk78sxzQ4BqWDgQNSe-7">
          <mxGeometry relative="1" as="geometry">
            <mxPoint x="260" y="-1520" as="targetPoint" />
          </mxGeometry>
        </mxCell>
        <mxCell id="kmCk78sxzQ4BqWDgQNSe-3" value="Разблокировка подписки&lt;br&gt;187408" style="html=1;overflow=block;blockSpacing=1;whiteSpace=wrap;fontSize=12;fontColor=#3a414a;spacing=3.8;strokeColor=#3a414a;strokeOpacity=100;rounded=1;absoluteArcSize=1;arcSize=9;strokeWidth=0.8;lucidId=NVgFTFySkRIj;" vertex="1" parent="1">
          <mxGeometry x="190" y="-1480" width="100" height="60" as="geometry" />
        </mxCell>
        <mxCell id="kmCk78sxzQ4BqWDgQNSe-13" style="rounded=0;orthogonalLoop=1;jettySize=auto;html=1;exitX=0.5;exitY=0;exitDx=0;exitDy=0;entryX=0.5;entryY=1;entryDx=0;entryDy=0;" edge="1" parent="1" source="kmCk78sxzQ4BqWDgQNSe-7" target="kmCk78sxzQ4BqWDgQNSe-11">
          <mxGeometry relative="1" as="geometry" />
        </mxCell>
        <mxCell id="kmCk78sxzQ4BqWDgQNSe-7" value="Опубликованный API с заблокированной подпиской" style="html=1;overflow=block;blockSpacing=1;whiteSpace=wrap;fontSize=12;fontColor=#3a414a;spacing=3.8;strokeColor=#3a414a;strokeOpacity=100;rounded=1;absoluteArcSize=1;arcSize=9;strokeWidth=0.8;lucidId=SVgFyfGoE5MS;" vertex="1" parent="1">
          <mxGeometry x="200" y="-1630" width="110" height="60" as="geometry" />
        </mxCell>
        <mxCell id="kmCk78sxzQ4BqWDgQNSe-8" value="" style="group;" vertex="1" connectable="0" parent="1">
          <mxGeometry x="1595" y="-2594" width="215" height="128" as="geometry" />
        </mxCell>
        <mxCell id="kmCk78sxzQ4BqWDgQNSe-9" value="" style="group" vertex="1" connectable="0" parent="kmCk78sxzQ4BqWDgQNSe-8">
          <mxGeometry width="215" height="128" as="geometry" />
        </mxCell>
        <mxCell id="kmCk78sxzQ4BqWDgQNSe-10" value="&lt;b&gt;get_api_w_blocked_subscription&lt;/b&gt;&lt;br&gt;Опубликованное согласованное API&lt;br&gt;Подписка на эту API&lt;br&gt;Блокировка подписки" style="html=1;overflow=block;blockSpacing=1;whiteSpace=wrap;fontSize=11.7;fontColor=#3a414a;spacing=3.8;strokeColor=#3a414a;strokeOpacity=100;rounded=1;absoluteArcSize=1;arcSize=9;strokeWidth=0.8;lucidId=21aG1TBDxjcq;" vertex="1" parent="kmCk78sxzQ4BqWDgQNSe-9">
          <mxGeometry width="215" height="64" as="geometry" />
        </mxCell>
        <mxCell id="kmCk78sxzQ4BqWDgQNSe-11" value="" style="html=1;overflow=block;blockSpacing=1;whiteSpace=wrap;fontSize=11.7;fontColor=#3a414a;spacing=3.8;strokeColor=#3a414a;strokeOpacity=100;rounded=1;absoluteArcSize=1;arcSize=9;strokeWidth=0.8;lucidId=21aG1TBDxjcq;" vertex="1" parent="kmCk78sxzQ4BqWDgQNSe-9">
          <mxGeometry y="64" width="215" height="64" as="geometry" />
        </mxCell>
        <mxCell id="kmCk78sxzQ4BqWDgQNSe-12" style="edgeStyle=orthogonalEdgeStyle;rounded=0;orthogonalLoop=1;jettySize=auto;html=1;exitX=0.25;exitY=0;exitDx=0;exitDy=0;entryX=0.874;entryY=0.008;entryDx=0;entryDy=0;entryPerimeter=0;" edge="1" parent="1" source="kmCk78sxzQ4BqWDgQNSe-10" target="w8NURa0f5OFi1lEBoypp-10">
          <mxGeometry relative="1" as="geometry" />
        </mxCell>
      </root>
    </mxGraphModel>
  </diagram>
</mxfile>
